<svg xmlns="http://www.w3.org/2000/svg" width="1000" height="1000" version="1.0" viewBox="26 247 698 256"><defs><clipPath id="a"><path d="M28 289h694v211.77H28Zm0 0"/></clipPath><clipPath id="b"><path d="M415 249.52h4V253h-4Zm0 0"/></clipPath></defs><path fill="#e1bd8f" d="m37.86 453.21.17.03q.12.02.22.03-.2-.03-.39-.06M38.23 453.27l.22.02h.07zM293.98 383.02q.02-.11.02-.24-.02.11-.02.24M252.25 496.71q-.05 0-.12.02-.16.08-.31.15.21-.14.43-.17M300.68 496.25q-.06.02-.1.05l-.1.05zM332.23 485.99q-.17-.03-.34-.05h-.05q.17 0 .39.05M415.07 487.77q-.08 0-.15.02l-.24.02q.17 0 .39-.04M367.88 462.65q.06-.06.1-.12.01-.03.02-.05zM398.61 465.9l.22.03.17.03q-.21-.05-.39-.05M471.45 336.8q.11.14.2.27.06.07.12.17zm0 0"/><path fill="#e1bd8f" d="m471.62 337.02.02.03q-.02-.01-.02-.03M471.67 337.07l-.03-.02.06.05q-.04 0-.03-.03M630.96 469.31q-.02 0-.05.03-.01 0-.02.02.03-.02.07-.05m0 0"/><g clip-path="url(#a)"><path fill="#e1bd8f" d="M720.57 468.41a3 3 0 0 0-1.02-1.21 13 13 0 0 0-1.91-1.22c-1.31-.68-2.75-1.02-4.15-1.41-1.29-.36-2.6-.6-3.91-.85q-2.1-.43-4.2-.97-.94-.27-1.84-.54l-1.9-.5q-2-.49-4-1.03l-3.1-.82v-2.52q0-1.1-.08-2.2c-.07-.93-.25-1.85-.37-2.78-.19-1.43-.48-2.89-.94-4.27-.44-1.37-.92-2.7-1.53-4a31 31 0 0 0-1.9-3.4 18 18 0 0 0-2.95-3.62c-2.07-1.92-4.4-3.52-6.7-5.13q-.8-.6-1.63-1.12a17 17 0 0 0-1.8-.97 41 41 0 0 0-4-1.53c-1.68-.56-3.43-.8-5.17-1.02q-1.1-.14-2.24-.25c-.84-.04-1.67-.16-2.5-.26q-.03-.06-.07-.1-.06-.04-.1-.1c-.31-.46-.55-1-.82-1.48-.34-.63-.65-1.24-1.02-1.85-.8-1.31-1.75-2.53-2.7-3.74-.9-1.12-1.77-2.26-2.79-3.26a24 24 0 0 0-3.7-2.9q-1.12-.72-2.34-1.26c-.9-.4-1.82-.78-2.76-1.04-.49-.15-.98-.22-1.46-.3q-.79-.14-1.58-.17a6 6 0 0 0-1.6.2l-1.19.32-.34-.22q-1.45-1.15-2.94-2.21c-1.23-.86-2.4-1.83-3.9-2.2a8 8 0 0 0-2-.19h-.38q-1.02.01-2.04.05-2.14.07-4.2.59a18 18 0 0 0-2.99 1.06q-.56.27-1.14.61-.06-.68-.17-1.36v.07q-.02-.17-.05-.34a34 34 0 0 0-2.18-9.04 26 26 0 0 0-2.02-4.13c-.8-1.32-1.79-2.48-2.84-3.6q-.74-.8-1.6-1.54c-.63-.5-1.28-.94-1.92-1.43q-.87-.7-1.76-1.41-.84-.65-1.75-1.21a22 22 0 0 0-4.25-1.97q-1.93-.7-3.88-1.3c-1.39-.4-2.8-.77-4.2-1.02a25 25 0 0 0-3.82-.28q-.56 0-1.1.02a43 43 0 0 0-4.72.51q-1.1.2-2.18.39-1.05.17-2.12.39a18 18 0 0 0-6.28 2.55q-.86.56-1.68 1.19c-.92.7-1.82 1.46-2.74 2.16q-.86.62-1.67 1.27-.92.7-1.8 1.48l-1.55 1.46-.03-.07-.53-1.87c-.37-1.24-.85-2.46-1.29-3.7a51 51 0 0 0-1.82-4.47 51 51 0 0 0-1.94-3.63 21 21 0 0 0-2.72-3.6 55 55 0 0 0-3.08-3.18q-.84-.76-1.7-1.5-.91-.83-1.94-1.54a44 44 0 0 0-3.7-2.24 19 19 0 0 0-4.16-1.77q-1-.34-1.97-.66-.94-.26-1.92-.39a36.41 36.41 0 0 0-8.86-.36c-.85.07-1.67.34-2.47.61q-.28-.48-.58-.93-.65-.97-1.4-1.92a14.6 14.6 0 0 0-3.32-3.2 24.6 24.6 0 0 0-7.82-3.38c-1.37-.3-2.76-.37-4.16-.37h-.44q-2.33.01-4.61.15c-1.46.07-2.91.29-4.37.46-1.48.17-2.92.53-4.37.92-1.43.37-2.84.78-4.27 1.1-.7.17-1.41.31-2.1.53q-.97.3-1.96.7a33 33 0 0 0-4.15 1.85c-.63.34-1.23.76-1.87 1.12l-.04-.6c-.1-.66-.25-1.32-.34-1.98-.1-.63-.27-1.24-.42-1.87-.14-.7-.34-1.4-.5-2.14q-.29-1.04-.64-2.07l-.63-1.82c-.5-1.4-1.09-2.8-1.67-4.16a33 33 0 0 0-2.06-4.08c-.42-.68-.8-1.38-1.24-2.06a49.39 49.39 0 0 0-8.01-9.07c-1.15-1.02-2.38-1.97-3.57-2.92a31 31 0 0 0-1.97-1.49q-.88-.59-1.9-1.09a55.57 55.57 0 0 0-8.28-3.09 25 25 0 0 0-4.8-.85q-.67-.05-1.35-.04h-.73l-2.3.07c-1.87.1-3.72.46-5.54.87l-.1-.44q-.25-.8-.53-1.6-.5-1.5-1.1-2.94a29 29 0 0 0-1.62-3.43 56 56 0 0 0-2.11-3.26c-1.68-2.45-3.64-4.7-5.56-6.98-.92-1.1-1.9-2.11-2.91-3.13a32 32 0 0 0-3.72-3.04 47 47 0 0 0-3.76-2.41c-1.28-.75-2.55-1.5-3.9-2.14q-1.1-.47-2.22-.87-1.07-.42-2.16-.76a31.63 31.63 0 0 0-8.76-1.17h-.26q-2.19 0-4.4.13c-1.6.1-3.15.41-4.7.75-1.39.3-2.65.88-3.99 1.34s-2.76.77-4.1 1.34q-1.94.8-3.69 1.97-1.14.74-2.18 1.62-.76.7-1.53 1.42l-.22-.06q-2.05 0-4.1.08c-1.48.07-2.99.17-4.44.48q-2.13.48-4.18 1.22c-1.45.5-2.86 1.2-4.2 1.97q-2.06 1.19-3.86 2.7c-.53.44-1.01.9-1.53 1.36q-.83.75-1.67 1.48c-1.1.95-2.09 2.05-3.1 3.09-1.03 1.07-2.07 2.12-3 3.28a42 42 0 0 0-2.73 3.77c-.76 1.2-1.41 2.48-2.04 3.75a114 114 0 0 0-3.67 8.29 55 55 0 0 0-1.45 4.23 54 54 0 0 0-1.07 4.47 34 34 0 0 0-.61 4.67q-.09 1.06-.1 2.14v2.16q0 2.59.03 5.2.01 1.3.1 2.66.08 1.1.24 2.2l.2 1.66q-.38-.12-.74-.24l-1.09-.3c-.34-.1-.7-.14-1.04-.21q-.55-.12-1.12-.25-1.2-.21-2.45-.24a43 43 0 0 0-4.3-.02q-2.23.16-4.39.7-2.16.5-4.25 1.29-1.16.43-2.25 1-.95.52-1.85 1.11a29 29 0 0 0-6.26 5.55l-.63.8q-.6.73-1.1 1.53a17 17 0 0 0-.9 1.6c-.65 1.34-1.18 2.75-1.72 4.14a32.93 32.93 0 0 0-2.06 7.7q-.17 1.1-.29 2.17-.1 1.05-.12 2.12-.05 1.05-.03 2.09.06 1.05.15 2.09a33 33 0 0 0 .6 4.6c.27 1.23.74 2.4 1.17 3.57.49 1.24.92 2.48 1.6 3.62q.54.87 1.22 1.68-1.04-.45-2.11-.88a24 24 0 0 0-4.08-1.21c-1.53-.3-3.08-.54-4.66-.64q-.7-.03-1.36-.04a30 30 0 0 0-5.44.5q-1.03.18-2.01.4-1.06.23-2.11.5-1.14.35-2.24.86a31 31 0 0 0-3.86 2.02c-1.3.82-2.33 1.96-3.42 3.01q-.04.04-.07.05l-.6-.56q-.75-.64-1.51-1.24l-1.46-1.24q-.36-.31-.68-.6-.52-.45-1.04-.83a10 10 0 0 0-2.24-1.2q-.9-.38-1.86-.7-.99-.32-2-.56-1.12-.3-2.32-.37l-.71-.02c-1.33 0-2.67.17-3.95.42q-1.15.2-2.31.38-.47.09-.95.24l-.22-.72a51 51 0 0 0-.68-2.07c-.43-1.24-.84-2.48-1.33-3.7-.27-.68-.51-1.36-.8-2.04l-.95-2.24a28 28 0 0 0-1.99-3.93c-.75-1.17-1.45-2.36-2.3-3.46a26 26 0 0 0-2.94-3.18 44 44 0 0 0-5.46-4.52q-.88-.63-1.77-1.15c-1.32-.72-2.58-1.53-3.91-2.2q-1.87-.94-3.74-1.78a29 29 0 0 0-4.27-1.56q-2.07-.52-4.15-.97-2.11-.46-4.27-.76c-1.56-.22-3.08-.31-4.64-.4q-.9-.05-1.8-.06a97 97 0 0 0-7.01.3q-2.32.23-4.66.75c-.7.14-1.4.36-2.11.53q-1.09.26-2.16.59c-.7.2-1.44.39-2.14.63q-.97.33-1.92.68c-1.5.53-2.96 1.19-4.41 1.85q-2.14.95-4.25 2c-1.34.65-2.6 1.47-3.79 2.35q-1.9 1.37-3.69 2.85l-1.6 1.4c-.53.51-1.06 1.07-1.58 1.6a33 33 0 0 0-2.86 3.46c-.9 1.24-1.84 2.48-2.74 3.72-.42.58-.88 1.14-1.29 1.75q-.53.82-1.07 1.63a39 39 0 0 0-2.23 3.8q-.47.98-.78 2.03-.1.39-.14.71-.03-.01-.05-.02-.46-.2-.92-.44a8 8 0 0 0-2.12-.78q-.4-.08-.77-.17a9 9 0 0 1-.85-.27q-.88-.29-1.8-.5-2.12-.57-4.32-.69-.99-.04-1.99-.12-.31-.02-.63-.02-.73 0-1.43.07-1.05.09-2.07.22c-.8.1-1.62.14-2.42.26-1.36.2-2.74.47-4 1q-1.1.44-2.17.95c-.58.27-1.16.51-1.72.83-1.24.7-2.33 1.63-3.42 2.55q-.76.7-1.5 1.4c-.5.45-.93.93-1.37 1.42-.99 1.12-1.82 2.36-2.57 3.67a28 28 0 0 0-2.01 4.3q-.35 1-.68 1.97a13 13 0 0 0-.56 2.12q-.14.92-.24 1.85-.72-.26-1.44-.51-.41-.15-.82-.32-.48-.17-1-.3-1.02-.22-2.04-.43a19 19 0 0 0-2.3-.39 43 43 0 0 0-4.37-.17h-1.36c-1.02 0-2.04.02-3.03.15-1.5.17-3.06.39-4.54.82-1.38.4-2.72.98-4.03 1.59-1.31.6-2.65 1.14-3.89 1.84a35 35 0 0 0-3.39 2.12q-.31.22-.56.43-.06.05-.12.08-.16.1-.27.22-.52.4-1 .85-.74.72-1.35 1.55-.48.61-.88 1.3-.24.4-.43.8l-.32.5q-.19.23-.41.44-.07.04-.15.03c-.53.05-1.06.02-1.58.1-.75.1-1.5.21-2.23.43-1.38.42-2.7 1.07-3.93 1.83a19 19 0 0 0-3.37 2.55c-.85.8-1.6 1.65-2.38 2.53q-.33.38-.7.7-.27.18-.52.32-.8.28-1.6.5l-1.99.6c-1.28.36-2.57.74-3.86 1.01l-4 .83-1.92.34c-.73.15-1.43.37-2.14.53-1.43.37-2.88.69-4.29 1.15q-2.2.67-4.27 1.55-.85.37-1.63.88-1.04.6-1.87 1.46a7 7 0 0 0-1.33 2.36 2.24 2.24 0 0 0 .1 1.82c.16.39.48.73.8 1.02.65.58 1.52.83 2.32 1.14a10 10 0 0 0 1.85.61q.9.2 1.82.37c.73.12 1.46.17 2.16.26h-.07q.15.01.29.05h-.07l1.04.15q.78.12 1.58.24h-.08c1.1.17 2.16.34 3.26.49q1.57.2 3.15.34c1.05.1 2.06.27 3.11.34q1.5.09 2.96.27 1 .16 2.01.27c.73.07 1.46.09 2.19.16q1.89.16 3.79.37.4.06.8.2.14.06.24.14c.44.39.82.85 1.31 1.22.65.5 1.36.85 2.11 1.16q.96.36 1.97.56 1.06.24 2.16.37 1.15.16 2.35.29 1.03.06 2.06.17 2.15.2 4.32.24c2.96.07 5.9.05 8.86.05h9.01c1.53 0 3.06-.12 4.56-.17 1.46-.05 2.89-.2 4.35-.27s2.91-.14 4.34-.3q1.1-.1 2.18-.18l2.29-.13q1.13-.06 2.25-.19 1.09-.12 2.16-.22 1.09-.08 2.21-.2l1-.1.39-.01c1.06.9 2.13 1.77 3.13 2.74.41.42.87.78 1.33 1.17q.72.63 1.44 1.31c.92.83 1.89 1.6 2.76 2.48.92.95 1.82 1.9 2.82 2.75l1.7 1.36c.48.39 1.04.7 1.57 1.02.61.36 1.2.76 1.8 1.1q.88.5 1.8.97c.65.36 1.35.65 2.03.97.73.34 1.46.7 2.24.97 1.26.44 2.57.66 3.88.9q1.27.22 2.55.47.73.12 1.46.22l.97.07q.3.06.56.14c.58.3 1.06.7 1.62 1.05a19 19 0 0 0 5.73 2.55c1.38.42 2.81.68 4.22.97 1.48.32 3.01.4 4.52.51 1.5.13 3 .27 4.51.27 1.58 0 3.13-.24 4.69-.44l2.71-.36c.7-.1 1.44-.2 2.14-.39 1.38-.36 2.7-.97 4-1.5.78-.32 1.58-.57 2.36-.86q1.32-.48 2.6-1.02 1.14-.48 2.2-1.1c.76-.4 1.5-.84 2.29-1.18l-.15.04.68-.29c.36.51.73 1.05 1.14 1.5.56.64 1.2 1.23 1.82 1.76 1.36 1.19 2.82 2.21 4.25 3.3q.95.78 1.97 1.46c.63.44 1.3.83 1.96 1.25q.94.62 1.9 1.21c.63.4 1.28.75 1.91 1.14 1.22.73 2.43 1.5 3.7 2.14 1.28.66 2.64 1.17 3.95 1.8q1.99 1 4.05 1.85c1.29.51 2.57.88 3.91 1.24q.94.24 1.9.49c.8.2 1.6.31 2.42.41 1.34.17 2.67.22 4 .39q1.85.26 3.74.39c1.34.07 2.67.12 4 .07q1.03-.04 2.05-.2c.68-.11 1.33-.29 1.99-.46q1.78-.48 3.49-1.24h-.02.05-.03q.4-.06.7-.29c1.12.51 2.24 1 3.4 1.34q.9.29 1.8.46c.58.12 1.19.17 1.77.24l2.8.44c1.1.17 2.25.24 3.39.36l2.06.3 1.95.22q.95.17 1.91.29 1.27.18 2.53.24c1.48.1 2.93.1 4.42.12q2.09.06 4.17-.02c1.5-.07 2.99-.27 4.47-.49h.12l.19-.02.22-.03-.17.03q1.64-.21 3.25-.56 1.57-.35 3.08-.78 1.58-.44 3.11-1.02 1.64-.58 3.23-1.24a40 40 0 0 0 4-1.9c.61-.33 1.22-.65 1.8-1.04q.9-.59 1.8-1.24c1.19-.85 2.37-1.68 3.52-2.6q1.55-1.25 3-2.58c.8-.73 1.56-1.5 2.36-2.24a13 13 0 0 0 2.89.49c1.14.1 2.3.05 3.47.12q1.85.13 3.71.22.88.02 1.75.05.74.03 1.48.15.76.11 1.53.19 1.64.22 3.25.39 1.01.16 2.06.34c.88.15 1.75.22 2.6.31q1.12.13 2.28.25 1.05.06 2.12.1c1.55.04 3.08.26 4.63.4.7.08 1.38.1 2.09.15.72.05 1.43.15 2.16.2 1.38.12 2.76.1 4.17.22q2.02.17 4.03.22 2.12.06 4.22.05 1.15-.01 2.29-.1l2.25-.12q2.12-.19 4.23-.42a53 53 0 0 0 4.39-.6c1.24-.25 2.43-.59 3.64-.88l2-.49 1.62-.41q1.04.4 2.16.68c.7.2 1.4.3 2.13.41 1.53.27 3.06.56 4.61.68q1.02.06 2.04.15 1.14.1 2.26.15 1.11.01 2.24.07 1.11.06 2.23.2c1.87.21 3.73.3 5.6.36 1.95.05 3.86-.17 5.8-.44l2.72-.39q-.19.02-.39.05 1.46-.18 2.87-.46l2.33-.41q.08-.01.14-.03c.4-.05.61-.07.98-.24.48-.22.82-.7.97-1.22.1-.39.1-.83.02-1.21-.1-.54-.39-1.03-.73-1.44a8 8 0 0 0-1.2-1.12c-.54-.41-1.08-.85-1.64-1.21-.46-.3-.97-.54-1.45-.8q-.72-.41-1.43-.83c-.47-.27-.98-.46-1.46-.68q-.9-.42-1.8-.8l-.53-.22q-1.3-.6-2.65-1.05c-.82-.27-1.62-.6-2.45-.8-.41-.1-.85-.12-1.29-.24-.3-.08-.6-.18-.92-.22q-.69-.13-1.38-.12h-.05c-1.36-.73-2.74-1.49-4.22-1.93q-1.98-.54-3.96-1.16l-1.97-.59q-1.05-.33-2.1-.67a76 76 0 0 0-4-1.2c-1.83-.46-3.63-1.04-5.5-1.36l-.82-.14q-.12-.01-.2-.03a2 2 0 0 0-.53-.07q-.12-.04-.24-.03-2.03-.28-4.06-.43c-1.45-.1-2.93-.1-4.39-.12q-2.12-.04-4.25-.03h-.92q.46-.47.87-.97c.34-.44.66-.93.98-1.36l.02-.03q-.02.05-.05.05l.51-.53q.82.04 1.63.12c.68.12 1.33.31 2.01.48.7.2 1.41.3 2.11.41q1.03.18 2.02.42c.7.17 1.38.37 2.09.51q2.05.4 4.1.83 2.2.47 4.42.92 2 .41 4 .68c1.4.2 2.84.32 4.25.49q.86.1 1.72.24-.2-.02-.39-.05 1.2.2 2.43.34 1.17.14 2.3.25 2.2.25 4.42.31 2.31.07 4.61.1c1.53.02 3.06.12 4.57.17q2.35.1 4.75.1a57 57 0 0 1 4.35.14q2.34.11 4.68.15c1.5.02 3.01 0 4.52.1q2.22.1 4.44.26 2.24.2 4.54.22 2.22.05 4.44.05 1.17.01 2.33 0 1.12-.04 2.23-.1c1.5-.07 3.04-.22 4.54-.29a88 88 0 0 0 6.75-.53c.75-.07 1.48-.1 2.2-.2 1.58-.17 3.16-.46 4.74-.78q2.51-.47 4.98-1.21 1.35-.4 2.69-.76c.9-.26 1.82-.48 2.72-.77q.04-.01.07-.05c1.17.58 2.3 1.2 3.52 1.63 1.4.53 2.86.9 4.3 1.33q1.95.64 3.96 1.17c1.4.34 2.78.73 4.2 1.02 1.42.32 2.88.63 4.29 1.03q1.14.29 2.28.5 1.12.24 2.26.46 1.23.23 2.5.42 1.05.1 2.09.17 2.14.15 4.29.02 1.24-.08 2.48-.12c.48.54.97 1.1 1.53 1.56q.85.7 1.77 1.31c.6.39 1.19.83 1.8 1.22q.95.53 1.94 1c1.14.53 2.23 1.14 3.37 1.65 1.19.53 2.33 1.11 3.52 1.65 1.38.63 2.86.93 4.34 1.31 1.39.37 2.77.8 4.18 1.05 1.62.27 3.25.44 4.9.39 1.56-.05 3.08-.37 4.56-.8a32 32 0 0 0 4.03-1.54q.87-.43 1.7-.95.95-.56 1.85-1.21.97-.72 1.96-1.43c.49-.4 1-.76 1.44-1.2a19 19 0 0 0 1.5-1.58q.6-.73 1.29-1.43l.34.07c1.5.17 3.03.3 4.56.22 1.5-.07 3.01-.17 4.49-.12 1.43.05 2.84.29 4.27.44q2.38.24 4.76.26 3.58.06 7.16.05h10.97c1.53 0 3.03-.12 4.56-.26q2.25-.24 4.52-.61c2.86-.49 5.77-.9 8.61-1.54 2.12-.46 4.2-1.06 6.3-1.65q1.6-.44 3.2-1.02 1.67-.66 3.32-1.36l1.67-.73c.59.24 1.17.49 1.77.66q1.03.25 2.07.46c1.45.3 2.89.56 4.32.9q1.04.28 2.09.58 1.08.33 2.18.59c1.46.31 2.89.63 4.32 1.09q1.02.34 2.04.63.98.3 2 .54c1.42.36 2.85.73 4.31 1.02 1.43.29 2.87.5 4.3.75 1.48.27 2.98.4 4.49.54 3.03.27 6.06.27 9.1.27 1.48 0 2.98.04 4.46 0 1.44-.05 2.87-.15 4.3-.2.73-.02 1.48-.12 2.21-.17.68-.05 1.36-.15 2.04-.2q1.17-.1 2.35-.14l2.19-.15q2.25-.14 4.51-.17 2.22-.05 4.44-.29c1.75-.17 3.52-.22 5.27-.36q1.4-.12 2.8-.27.6-.06 1.23-.1.8-.1 1.6-.22 2.14-.3 4.2-.87c.73-.2 1.48-.44 2.14-.83.53-.32.97-.7 1.28-1.24.27-.43.4-1 .42-1.5-.08-.9-.3-1.42-.52-1.88M469.48 338.97l-.14-.2-.05-.07q.08.13.2.27M77.21 425.52l-.08.08.03-.03q.02-.04.05-.05M718.05 470l-.05.05q-.3.2-.6.34c-.73.27-1.49.44-2.24.6-.87.23-1.8.38-2.7.52q.2-.02.4-.05l-1.05.15q-.99.1-1.99.2c-.77.06-1.55.16-2.33.21q-1.12.09-2.23.15-1.1.04-2.19.12-2.25.19-4.5.34c-1.44.07-2.87.07-4.3.15q-2.3.13-4.62.28-1.04.07-2.13.18-1.1.1-2.21.2c-1.43.11-2.84.14-4.27.21-1.49.1-2.99.07-4.47.07q-3.34.02-6.72-.07-1.66-.05-3.3-.2c-.98-.1-1.97-.17-2.94-.29q-2.05-.31-4.06-.68c-1.45-.27-2.9-.63-4.36-.97-1.39-.34-2.77-.68-4.13-1.12a49 49 0 0 0-4.1-1.14 54 54 0 0 1-3.47-.88q-1.7-.52-3.5-.9-1.8-.34-3.59-.73c-.53-.12-1.1-.21-1.6-.39q-.9-.29-1.8-.7-.08-.01-.2-.02l-.28-.05q-.2 0-.4.07c-.48.17-.91.41-1.37.6l-.83.37q-.37.15-.73.32c-1.36.56-2.72 1.14-4.15 1.58q-2.08.61-4.15 1.17a83 83 0 0 1-8.42 1.8q-2.74.48-5.49.9c-1.38.16-2.79.36-4.2.46-1.5.1-3 .07-4.53.07h-9.06q-2.3 0-4.6-.02-2.3 0-4.57-.1-1.22-.08-2.43-.2-1.08-.12-2.16-.24-1.04-.12-2.09-.17-1.15-.02-2.3.02c-1.1.05-2.21.12-3.3.12-1.2 0-2.38-.12-3.55-.24a1 1 0 0 0-.5.1q-.01 0-.03-.02c-.41-.12-.75-.03-1.12.14-.34.15-.63.41-.87.68q-.26.25-.49.54-.59.7-1.21 1.36a16 16 0 0 1-2.16 1.97q-1.42 1.06-2.86 2.02c-.86.56-1.78 1.1-2.72 1.5-1.8.73-3.64 1.36-5.56 1.66q-1.06.11-2.16.12-1.17-.03-2.33-.17-2.3-.38-4.54-1.05c-.75-.22-1.5-.36-2.26-.56q-.94-.25-1.9-.58l-2.9-1.38q-.7-.33-1.41-.64c-.54-.24-1.02-.53-1.53-.77-1.04-.54-2.16-.98-3.13-1.6a35 35 0 0 1-2.67-1.86q-.94-.81-1.72-1.75a1.4 1.4 0 0 0-.56-.34c-.27-.24-.61-.41-.97-.39-1.63.05-3.26.22-4.88.2q-2.28-.03-4.57-.27c-1.43-.22-2.86-.54-4.27-.83-1.5-.31-2.98-.75-4.51-1.07-1.38-.31-2.77-.58-4.13-.97-.7-.2-1.4-.34-2.1-.51q-1.03-.25-2.05-.58-1.58-.51-3.18-.98c-1-.29-1.99-.58-2.96-.97q-1.51-.7-2.96-1.46-.35-.19-.75-.2-.19 0-.37.06-.14.04-.24.12-.22-.01-.44.04c-1.18.4-2.4.69-3.61 1.03-1.21.36-2.43.73-3.64 1.02a70 70 0 0 1-7.14 1.36q-1.04.1-2.09.17-1.08.1-2.18.22c-.46.05-.92.05-1.38.1q.56-.58 1.02-1.27.55-.92 1.04-1.9c.32-.63.66-1.28.92-1.96.29-.7.44-1.41.6-2.17.18-.78-.21-1.58-1.01-1.8a2 2 0 0 0-.37-.05c-.63 0-1.26.42-1.4 1.07-.15.68-.3 1.36-.56 2q-.37.8-.78 1.6c-.34.68-.7 1.39-1.14 2.02q-.4.46-.85.9c-.49.44-.5 1.2-.22 1.73l-.41.02c-1.5.07-2.98.22-4.5.3q-1.12.03-2.25.1l-2.37.01c-3 0-5.95-.02-8.94-.26q-2.22-.18-4.44-.27c-1.53-.07-3.06-.07-4.59-.1q-2.29-.03-4.59-.14l-2.18-.12q-1.12-.03-2.23-.05-2.34-.04-4.69-.1c-1.55-.07-3.08-.17-4.63-.2q-3.06-.01-6.12-.14c-1.91-.1-3.83-.32-5.75-.56l-1.87-.27q-2.46-.33-4.9-.58c-2.84-.42-5.68-1-8.47-1.6q-2.06-.46-4.1-.83-1.06-.24-2.1-.51-1.05-.25-2.1-.42l-1.5-.26q-.76-.2-1.52-.4c-1.2-.31-2.5-.4-3.73-.45h-.05q-.28 0-.54.12-.1 0-.21.02c-.32.1-.73.34-.88.66l-.02.05-.27.26q-.24.27-.46.56l-.85 1.2a24 24 0 0 1-3.23 3.06 1.4 1.4 0 0 0-.44 1.02c0 .34.15.68.37.95.12.24.3.48.53.6.32.2.64.22.98.17q1.9-.01 3.8 0 1.98 0 3.91.03c2.55.02 5.07.07 7.6.39l.53.07q.31.06.61.07h.03q.15.05.29.05.14.04.26.03 2.04.35 4.03.87 2.04.55 4.08 1.12c1.4.39 2.77.9 4.15 1.31q1.9.59 3.79 1.12c1.06.32 2.16.59 3.18 1 .87.39 1.7.85 2.54 1.29q.4.19.8.17c.2.1.42.2.66.2q.32 0 .63.02.5.12.97.24.45.08.93.17.42.08.85.2.84.26 1.64.58.89.28 1.73.63l1.17.51-.34-.15q.36.15.72.32 1.68.72 3.28 1.58.4.23.8.49l.85.43q.83.46 1.58 1.03c.24.2.48.36.73.58q-1.9.35-3.8.65-1.04.15-2.08.32l-1.33.17q.15-.02.29-.05a37 37 0 0 1-6.75.3q-1.04-.05-2.09-.13c-1.5-.12-2.98-.34-4.49-.41q-1.1-.06-2.2-.07-1.14-.06-2.21-.17c-.88-.08-1.75-.1-2.6-.2-1.17-.17-2.3-.39-3.47-.58a21 21 0 0 1-3.79-1c-.1-.05-.22-.02-.32-.02-.26-.1-.55-.15-.84-.05q-.63.18-1.24.32-.62.18-1.26.31-1.21.3-2.43.6c-.75.2-1.5.42-2.28.57q-1.2.24-2.43.41-2.19.27-4.37.46-2.18.17-4.37.3c-1.48.1-2.96.05-4.46.05q-2.02-.03-4.03-.15-1-.09-2-.15t-2-.07c-1.51-.08-3-.27-4.5-.34q-1.04-.06-2.09-.2c-.77-.1-1.52-.14-2.3-.22-1.48-.12-2.94-.14-4.42-.28q-.84-.1-1.67-.2l-1.41-.15-2.43-.38c-.87-.13-1.75-.2-2.64-.32q-.76-.12-1.56-.2c-1-.14-2.01-.29-3.03-.34l-1.53-.04-1.75-.08c-1.06-.05-2.1-.17-3.18-.2-.97-.02-1.96-.02-2.94-.14q-1.1-.2-2.18-.5l-.36-.06c-.42 0-.83.2-1.1.51-.6.47-1.1.97-1.67 1.51l-1.55 1.46q-1.38 1.23-2.84 2.43-1.1.84-2.24 1.63c-.8.56-1.57 1.14-2.4 1.68a37 37 0 0 1-5.17 2.67q-.3.12-.58.24c-.9.37-1.85.71-2.77 1.05-.94.36-1.94.66-2.9.95q-2.85.81-5.76 1.26l-.17.03q-.06 0-.12.02-.2 0-.37.05-.06 0-.12.03.06 0 .12-.03-.39.06-.82.12-1.66.22-3.3.32-1.75.09-3.48.02c-2.32-.02-4.63-.02-6.96-.29l-2.36-.36q-1.17-.13-2.35-.27-1.1-.17-2.18-.3-1.13-.09-2.29-.21l-1.91-.32q-1-.16-2-.27-1.07-.14-2.13-.46-1.16-.36-2.28-.8-.6-.25-1.14-.54c-.37-.17-.73-.26-1.12-.14q-.3.09-.56.31c-.07 0-.14-.05-.24-.05-.34.05-.6.1-.92.23l-.68.29c-1.43.55-2.94 1-4.44 1.26a29 29 0 0 1-3.57.1c-1.38-.05-2.74-.1-4.1-.27q-1.36-.19-2.72-.34c-.92-.1-1.82-.14-2.72-.24-1.21-.2-2.42-.51-3.62-.83-1.26-.34-2.5-.7-3.71-1.2a72 72 0 0 1-3.71-1.72c-1.31-.6-2.65-1.14-3.96-1.8q-.87-.45-1.7-1-.98-.57-1.96-1.18c-.66-.4-1.32-.76-1.94-1.17-.64-.4-1.24-.83-1.88-1.22-.84-.5-1.7-1.04-2.5-1.62q-1.6-1.23-3.2-2.44-.99-.75-1.92-1.63c-.58-.53-1.18-1.1-1.7-1.72q-.61-.85-1.18-1.7a1.7 1.7 0 0 0-.88-.69l-.38-.04q-.4 0-.74.2-.16.1-.28.26-.35.02-.68.17-.3.14-.59.26l.17-.07c-.9.4-1.72.83-2.57 1.32q-1.06.56-2.16 1.06c-1.72.71-3.47 1.3-5.2 2-.99.39-1.96.82-2.98 1.12-.97.27-1.97.39-2.96.53l-3.47.44q-1.68.19-3.38.17a52 52 0 0 1-3.3-.22c-1.04-.1-2.08-.15-3.13-.27q-1.93-.32-3.79-.77-1.79-.4-3.5-1.07c-.62-.3-1.28-.56-1.88-.9q-.87-.5-1.7-1.12a5.4 5.4 0 0 0-2.21-1.02c-.65-.12-1.33-.15-2.01-.22q-.91-.17-1.78-.34-.94-.16-1.9-.34l-1.76-.37q-.87-.19-1.75-.53a68 68 0 0 1-4.78-2.41q-1.16-.67-2.3-1.38-.94-.56-1.8-1.22-1.5-1.24-2.82-2.63-1.29-1.34-2.7-2.52c-.96-.83-1.89-1.73-2.86-2.56-.5-.44-1-.92-1.48-1.36q-.73-.66-1.5-1.29l-.46-.39a1.45 1.45 0 0 0-1.39-1.14q-.65-.02-1.28.08-.52.04-1.05.12-1.09.11-2.2.19-1.08.1-2.17.22-1.13.1-2.25.2l-2.29.11q-1.08.08-2.18.2-2.18.2-4.34.3c-1.46.07-2.9.19-4.35.26-1.53.05-3.06.17-4.56.17h-9q-4.2.01-8.4-.05a57 57 0 0 1-4.1-.2q-1.04-.07-2.02-.17-.96-.06-1.92-.17l-1.43-.19a17 17 0 0 1-3.06-.78 7 7 0 0 1-1.02-.56c-.65-.58-1.21-1.26-1.99-1.67-.95-.5-2.04-.54-3.08-.66-.97-.12-1.94-.17-2.94-.27-.95-.1-1.9-.14-2.84-.24q-1.33-.19-2.67-.34c-.87-.1-1.77-.12-2.67-.22-.87-.07-1.72-.22-2.57-.3-.8-.1-1.6-.16-2.4-.26q-1.88-.3-3.76-.56.19.03.38.05l-2.13-.32q-.21-.04-.41-.04-.77-.11-1.56-.18a38 38 0 0 1-2.33-.46c-.43-.1-.87-.29-1.29-.43l-.99-.4a2 2 0 0 1-.34-.19l-.02-.02v-.03q.22-.46.48-.9.31-.32.68-.63 1.19-.8 2.48-1.39 2-.8 4.07-1.38c1.39-.39 2.8-.7 4.2-1.07q1.04-.3 2.12-.49.94-.16 1.89-.34c1.36-.29 2.72-.5 4.05-.82q1.86-.45 3.72-1.02.95-.31 1.91-.56c.7-.2 1.48-.42 2.14-.78a7 7 0 0 0 1.65-1.39q.54-.65 1.12-1.29 1.14-1.23 2.5-2.33 1.79-1.3 3.8-2.21 1.16-.46 2.38-.66c.54-.05 1.05-.05 1.58-.1q.6-.01 1.2-.22.74-.3 1.28-.87.4-.47.78-.97.28-.45.5-.93a11 11 0 0 1 2.65-3.13l.1-.08q.16-.11.34-.27l-.08.06q.04-.05.08-.06c.67-.5 1.38-.94 2.09-1.4q1.02-.64 2.08-1.2c.8-.4 1.63-.75 2.45-1.14q1.06-.48 2.11-.95 1.29-.52 2.62-.87 1.33-.32 2.7-.51 1.1-.14 2.21-.2a26 26 0 0 1 2.45 0c1.63.03 3.25.03 4.86.22q.83.16 1.67.34.93.19 1.87.42c.58.14 1.14.38 1.7.58l2.06.73c.56.22 1.2-.07 1.56-.54q.48-.07.82-.39c.3-.29.39-.63.44-1.02l.12-1.02c.14-.97.31-1.92.6-2.84a45 45 0 0 1 1.07-3.04c.85-1.92 1.85-3.8 3.1-5.47a21 21 0 0 1 2.15-2.29c.46-.41.9-.87 1.38-1.28q.6-.52 1.24-1 1-.75 2.1-1.32 1.07-.5 2.17-1a15 15 0 0 1 4.41-1.13c.78-.1 1.56-.15 2.34-.25q1.21-.15 2.42-.2c.8-.02 1.58.08 2.38.1q1.01.06 2.02.17 1.78.31 3.54.86c.5.14 1 .34 1.5.46q.84.16 1.66.43c.26.13.53.3.8.42q.48.2.9.49c.5.4 1.09.8 1.79.77.53-.02 1-.31 1.26-.77.25-.2.46-.42.51-.73.2-1.03.42-2.05.78-3.02.48-1.07 1.1-2.09 1.72-3.09.6-.94 1.22-1.92 1.85-2.84q.52-.73 1.04-1.41c.37-.49.7-1 1.1-1.48q1.1-1.55 2.23-3.04a38 38 0 0 1 6.2-6.1q1.3-1 2.6-1.95.77-.51 1.56-1c.5-.32 1.04-.58 1.58-.87.5-.3 1.04-.51 1.58-.76l1.86-.87q1.43-.67 2.9-1.3 1.56-.61 3.12-1.16a73 73 0 0 1 9.83-2.45 71 71 0 0 1 10.4-.32q1.7.1 3.39.3c1.94.26 3.84.65 5.73 1.09q1.57.32 3.1.75 1.35.38 2.65.95 1.43.63 2.82 1.31 1.49.7 2.9 1.51l1.46.85q.67.39 1.34.78 1.38.88 2.7 1.87a44 44 0 0 1 6.04 5.79c.9 1.19 1.67 2.45 2.45 3.71.8 1.32 1.4 2.73 2.01 4.14.37.9.7 1.8 1.07 2.7q.49 1.28.95 2.55.5 1.35.94 2.7c.3.82.49 1.68.76 2.5q0 .25.02.49.16.57.68.87c.32.18.78.3 1.12.15.43-.17.87-.37 1.33-.49q.73-.2 1.46-.31 1.35-.24 2.7-.46c1.16-.15 2.35-.25 3.51-.12 1.63.26 3.2.75 4.73 1.38q.5.22.95.46.47.26.9.58.65.56 1.26 1.07.73.62 1.46 1.22l1.4 1.17q.37.33.68.65.47.44.98.8c.29.23.77.25 1.11.15.1-.02.17-.1.27-.12.34-.02.7-.14.97-.41q.8-.75 1.6-1.53.65-.66 1.36-1.3a15 15 0 0 1 2.06-1.23q1.19-.62 2.4-1.17.74-.31 1.49-.53.9-.27 1.84-.44 1.69-.37 3.4-.63a32 32 0 0 1 6.6-.03c1.6.22 3.2.54 4.76 1.05 1.5.48 2.94 1.14 4.4 1.72.82.35 1.64.69 2.5.93.5.14.99.34 1.5.48l.24.13q.11.01.22.02l.05.02c.41.08.75.08 1.11-.14q.5-.31.66-.88c.1-.36.05-.78-.15-1.12-.17-.29-.5-.6-.87-.65q-.05-.04-.05-.07c-.12-.15-.29-.27-.41-.4l-.51-.72c-.32-.42-.66-.8-.97-1.22q.04.07.1.12c-.51-.65-1.1-1.29-1.6-1.94q-.76-1.1-1.3-2.31-.62-1.5-1.13-3a18 18 0 0 1-.88-3.69q-.15-1.06-.22-2.16-.08-1.18-.17-2.36c-.02-.8.03-1.63.05-2.43q.06-1.13.2-2.21.1-.63.2-1.25c.11-.75.3-1.5.48-2.25a26 26 0 0 1 1.4-4.62l.88-2.27q.5-1.13 1.06-2.23c.4-.7.86-1.34 1.34-2l.24-.31a29 29 0 0 1 4.35-4.23 22 22 0 0 1 4.39-2.68 32 32 0 0 1 7.14-1.94q1.7-.22 3.4-.17c1.16.02 2.32.02 3.5.14q.75.13 1.54.32.83.17 1.65.39a19 19 0 0 1 1.58.51q.94.34 1.9.63c.75.25 1.57-.27 1.79-1.02.14-.48-.02-.95-.32-1.31q0-.25-.02-.51l-.22-1.34-.19-1.73c-.34-2.62-.27-5.27-.27-7.92v-4.11c0-.63.07-1.3.1-1.92q.08-.96.2-1.92.21-1.52.55-3.04.36-1.67.83-3.29.5-1.6 1.06-3.18.59-1.58 1.24-3.11 1.35-3.18 2.92-6.25c.53-1.05 1.06-2.12 1.7-3.09.62-.97 1.33-1.9 2.03-2.82a63 63 0 0 1 6.02-6.34c.44-.42.92-.8 1.36-1.2q1.23-1.14 2.53-2.2a29 29 0 0 1 5.62-3.31c.95-.4 1.95-.68 2.92-.98q1.46-.44 2.96-.68c2.26-.27 4.54-.27 6.8-.29q.3 0 .56-.12c.48.12 1 0 1.38-.36.8-.73 1.58-1.49 2.42-2.17q1.96-1.43 4.16-2.43c1.74-.68 3.61-1.1 5.36-1.77.9-.34 1.77-.66 2.7-.88q1.42-.33 2.86-.56c1.53-.15 3.1-.17 4.63-.2q2.47-.04 4.9.2c1.34.2 2.7.46 3.99.83q1.05.32 2.1.73l1.68.63c1.56.7 2.99 1.6 4.47 2.45q2.25 1.34 4.32 2.92.52.4 1.02.83.65.59 1.26 1.21c.75.78 1.5 1.53 2.21 2.36q1.04 1.25 2.09 2.48 1.05 1.26 2.09 2.55a63 63 0 0 1 2.54 3.63q1.26 1.9 2.19 4.01l.36.85c.34.8.6 1.63.87 2.46q.23.68.47 1.4.14.55.24 1.12-.08.38-.03.71a1.5 1.5 0 0 0 1.8 1.02q2.3-.6 4.64-1a36 36 0 0 1 7.16-.07q1.2.21 2.4.49 1.23.32 2.43.7 2.3.73 4.54 1.63 1.13.5 2.18 1.1c.73.4 1.4.92 2.09 1.43 1.82 1.46 3.66 2.9 5.31 4.52a55 55 0 0 1 4.67 5.13l.07.07-.03-.02c1 1.29 1.82 2.65 2.65 4.06a36 36 0 0 1 2.01 4.01q.66 1.56 1.24 3.11c.44 1.12.78 2.27 1.14 3.41.39 1.16.6 2.4.9 3.6l.34 1.67q.16.76.26 1.51.08.82.15 1.63c0 .1.05.17.05.27-.12.36-.1.78.12 1.14.39.66 1.31.95 1.99.54 1.9-1.22 3.86-2.41 5.93-3.3q1.48-.65 3.05-1.18c1.2-.39 2.45-.63 3.67-.92 2.26-.56 4.49-1.29 6.77-1.66q1.36-.19 2.72-.34c1.07-.12 2.16-.14 3.23-.2q1.5-.05 2.96-.06c.99 0 1.96 0 2.93.12 1.63.27 3.18.8 4.71 1.41q1.96.88 3.67 2.14a15 15 0 0 1 3.27 3.86l.51.83q.24.34.46.66c.22.73 1.05 1.26 1.78 1 .97-.32 1.91-.71 2.91-.88 2.64-.22 5.29-.07 7.91.27q1.42.2 2.77.65c1.04.37 2.09.7 3.1 1.1 1 .43 1.92 1 2.87 1.55q1.5.85 2.89 1.88.93.76 1.82 1.58.9.8 1.8 1.7c1.11 1.16 2.23 2.3 3.22 3.57q1.04 1.47 1.87 3.04.94 1.73 1.72 3.53.49 1.21.93 2.45.44 1.27.9 2.5.4 1.2.75 2.41.2.72.36 1.44c.15.58.3 1.11.54 1.65.14.32.53.58.87.66q.08.01.2.02c.48.15 1.06.05 1.43-.34.75-.78 1.57-1.5 2.35-2.26.83-.78 1.67-1.46 2.55-2.17q1.06-.79 2.13-1.62l1.87-1.49c1.24-.92 2.5-1.75 3.91-2.38 1.38-.56 2.81-.92 4.27-1.19 1.48-.27 2.96-.56 4.47-.75q1.67-.18 3.35-.25c1.06-.05 2.16.03 3.22.15 1.66.24 3.28.68 4.88 1.17q2.36.7 4.64 1.6 1.1.46 2.11 1.07 1.06.61 2.04 1.39.84.67 1.67 1.33l1.51 1.12c1.17.98 2.19 2.12 3.13 3.28a22 22 0 0 1 2.21 3.87q.76 1.9 1.33 3.84a29 29 0 0 1 1.12 5.57v-.05q.02.18.05.36.03.19.05.37l-.05-.39.22 1.77c.07.52.12 1.07.29 1.56.14.46.51.78.92.95.44.24.97.27 1.43 0 1.07-.56 2.11-1.14 3.2-1.65q1.77-.69 3.6-.93c.85-.1 1.72-.12 2.57-.15s1.7-.07 2.53.03q.38.07.77.22c.85.42 1.58.97 2.36 1.5q1.03.74 2.04 1.49c.68.56 1.33 1.14 2.16 1.46.7.27 1.43.07 2.13-.12q.51-.16 1.07-.25a5 5 0 0 1 1.1.03q.84.14 1.7.34.82.25 1.67.58 1.2.52 2.33 1.22c.8.49 1.52 1.02 2.26 1.58q1.18.98 2.23 2.14c.68.73 1.26 1.53 1.89 2.33.82 1.07 1.65 2.14 2.3 3.33q.5.9 1 1.83c.34.65.66 1.38 1.22 1.9q.35.28.77.36l.07.12c.3.29.64.36 1.02.44 1.7.22 3.43.31 5.1.53q1.89.24 3.72.73a25.42 25.42 0 0 1 5.12 2.07q.94.56 1.84 1.24c1.19.87 2.43 1.67 3.62 2.55q1.2.94 2.35 1.92 1.2 1.06 2.19 2.31.82 1.18 1.52 2.43c.49.86.95 1.7 1.34 2.6a29 29 0 0 1 1.87 6.37l.27 1.8c.14 1.3.16 2.58.19 3.87v1.6c0 .44-.03.88.07 1.32.12.53.58.9 1.1 1 .19.28.46.53.82.63a240 240 0 0 0 6.1 1.6l1.9.46c1.3.34 2.58.76 3.87 1.07l2.04.49q1.05.24 2.11.44c1.02.21 2.04.41 3.06.7 1 .3 2.01.51 3 .9q1.07.48 2.02 1.14a1 1 0 0 1 .37.47l.02.09c-.15.13-.17.15-.17.17m0 0"/></g><path fill="#e1bd8f" d="M712.95 474.34s0 .03 0 0M477.5 377.9q.36-1 .7-1.97.34-.96.6-1.9c.2-.68.34-1.39.52-2.1.22-.9.34-1.82.46-2.74l-.03.15.07-.52c.06-.4.08-.75-.14-1.11q-.31-.49-.88-.68-.18-.05-.38-.05-.4 0-.73.2c-.3.16-.63.5-.65.87q-.07.58-.18 1.16c-.14.98-.36 1.9-.58 2.85q-.33 1.43-.8 2.82a90 90 0 0 1-2.04 5.57c-.46 1.04-1.02 2.09-1.5 3.13a28.49 28.49 0 0 1-2.48 4.55c-.32.49-.6.97-.94 1.44q-.98 1.36-1.97 2.67-1.09 1.38-2.33 2.62-.67.65-1.34 1.27-.6.55-1.21 1.07l-1.02.7q-.48.32-.68.88c-.1.36-.05.78.15 1.12q.3.48.87.68c.34.1.83.07 1.12-.15q.96-.67 1.89-1.38.75-.64 1.43-1.32.73-.67 1.41-1.38.59-.63 1.16-1.3c.95-1.1 1.8-2.3 2.68-3.5q.6-.84 1.18-1.72.6-.9 1.17-1.85.49-.91.95-1.84.47-.96.92-1.9.48-.98.97-2 .5-1.12.92-2.28zM457.28 400.75a1.46 1.46 0 0 0 0 2.92 1.46 1.46 0 0 0 0-2.92M451.96 415.29l-.02.02a36 36 0 0 0 2.2-3.2q.57-.88 1.05-1.78c.36-.68.65-1.41.97-2.1.17-.36.27-.7.14-1.11a1.5 1.5 0 0 0-.65-.88 1.5 1.5 0 0 0-1.11-.14c-.34.1-.71.34-.88.65-.3.64-.56 1.3-.87 1.93-.3.6-.66 1.16-1 1.72q-.9 1.5-1.94 2.9l-.15.16q.08-.08.12-.17v.03l-.07.1q.02-.03.03-.05l-.08.07q-.01.02-.02.05 0 .01-.02.02 0-.01.02-.02l-.02.02q-.06.07-.1.12.03-.05.1-.12-.2.22-.34.47l-.22.29.07-.1c-.6.78-1.29 1.5-1.99 2.19l-1.02 1c-.41.41-.87.77-1.29 1.19-.87.87-1.82 1.65-2.74 2.48q-1.3 1.14-2.7 2.23-.98.74-2.03 1.46c-.68.46-1.31 1-2 1.46q-1.12.78-2.32 1.46c-.76.41-1.53.75-2.28 1.14-.7.36-.9 1.34-.51 2 .4.7 1.28.9 1.99.5.58-.31 1.21-.58 1.8-.9q.91-.5 1.81-1.06c1.2-.73 2.26-1.6 3.43-2.41 2.42-1.7 4.68-3.6 6.86-5.6.49-.43.95-.92 1.46-1.35q.7-.63 1.36-1.3.67-.63 1.29-1.3.69-.78 1.33-1.59l-.22.3.37-.5q.1-.12.2-.26-.03.05-.06.05l.32-.41-.15.2zM424.24 435.76q.84-.37 1.68-.76l.38-.14c.37-.15.66-.32.88-.68.2-.34.24-.75.14-1.12-.1-.36-.34-.68-.68-.88a1.5 1.5 0 0 0-.75-.22q-.18 0-.36.08-1.27.53-2.5 1.1l.34-.15c-1.31.56-2.6 1.19-3.9 1.77l.33-.14q-.54.2-1.1.46l.25-.1q-1.65.72-3.4 1.24c-.6.17-1.19.37-1.8.51-.57.17-1.13.37-1.74.49-.78.17-1.21 1.07-1.02 1.8.22.8 1.02 1.19 1.8 1.02.58-.12 1.16-.32 1.75-.49.65-.17 1.33-.39 1.98-.58 1.17-.34 2.31-.8 3.45-1.29q.03 0 .05-.02.1-.06.22-.1c1.38-.58 2.72-1.27 4.08-1.85q-.04.06-.08.05m0 0"/><path fill="#e1bd8f" d="m420.29 437.56-.08.02q-.01 0-.02.03zM419.97 437.7q.11-.04.22-.1-.1.05-.2.08 0 .01-.02.02M404.17 439.45a1.46 1.46 0 0 0 0 2.92 1.46 1.46 0 0 0 0-2.92M397.6 442.93q0 .3-.12.56a1.45 1.45 0 0 1-2.8-.56 1.5 1.5 0 0 1 .43-1.03 1.5 1.5 0 0 1 1.03-.43q.29 0 .56.11a1.4 1.4 0 0 1 .78.8q.1.26.11.55M387.93 444.27q-.18 0-.36.05-.65.16-1.31.27-.5.07-1 .12-1.3.16-2.62.43-1.16.26-2.35.47-.54.06-1.07.1c-.8.04-1.46.63-1.46 1.45 0 .75.66 1.48 1.46 1.46 1.12-.05 2.23-.24 3.32-.49a28 28 0 0 1 3.48-.6l-.25.02q.68-.07 1.36-.17.6-.11 1.19-.27c.78-.16 1.22-1.04 1.02-1.8-.14-.65-.75-1.04-1.4-1.04M472.86 357.16h.39q.37-.04.68-.3.47-.37.55-.97a1.4 1.4 0 0 0-.28-1.07c-.22-.27-.61-.56-.98-.56h-.38a1.2 1.2 0 0 0-.68.3q-.49.37-.56.97c-.05.38.04.77.29 1.07.22.26.63.56.97.56M468.83 369.21q-.19.65-.41 1.3a33 33 0 0 1-2.12 4.74q-.41.69-.92 1.38l-.43.6q-.4.6-.7 1.2c-.2.32-.15.8 0 1.14s.43.63.77.78c.36.15.78.15 1.14 0 .39-.17.58-.44.78-.78l.19-.34c.32-.48.68-.94 1-1.41q.64-1 1.19-2.02a34 34 0 0 0 1.5-3.3q.32-.85.56-1.7.14-.42.26-.85l.32-.95c.46-1.44 1.02-2.82 1.26-4.3q.14-.9.2-1.8c.1-.78-.44-1.54-1.24-1.63h-.17c-.7 0-1.38.53-1.46 1.26-.1.92-.17 1.87-.4 2.77-.27.88-.6 1.75-.88 2.63zM462.08 383.51q-.37.04-.68.3a1.45 1.45 0 0 0-.26 2.03c.22.27.6.56.97.56h.39q.37-.03.68-.29a1.46 1.46 0 0 0 .26-2.04c-.22-.27-.6-.56-.97-.56ZM458.44 389.54c-.44 0-.87.2-1.14.56a18 18 0 0 1-1.87 2.33q-.55.54-1.19 1a1.47 1.47 0 0 0-.26 2.04c.48.64 1.4.76 2.04.27q1.07-.8 1.96-1.8a26 26 0 0 0 1.6-2.06c.46-.66.39-1.54-.24-2.05-.24-.17-.58-.3-.9-.3M450.36 400.43h.39q.37-.03.68-.29.47-.37.55-.97a1.4 1.4 0 0 0-.28-1.07c-.22-.27-.61-.56-.98-.56h-.38a1.2 1.2 0 0 0-.68.3q-.49.36-.56.96-.08.62.29 1.07c.22.27.6.56.97.56M420.84 428.54q.9-.31 1.8-.61.9-.36 1.77-.78.76-.34 1.5-.7.8-.36 1.61-.78 1.54-.83 3.08-1.65c1.14-.64 2.28-1.24 3.38-1.93q1.68-1.03 3.22-2.25.41-.34.78-.71l.85-.73q.72-.62 1.43-1.29 1.51-1.35 2.94-2.77c.87-.88 1.65-1.82 2.48-2.75q.94-1.05 1.7-2.26a22 22 0 0 0 1.57-3.26 1.5 1.5 0 0 0-1.33-2.04c-.56 0-1.14.32-1.36.88q-.54 1.37-1.22 2.64a14 14 0 0 1-1.8 2.36c-.77.88-1.52 1.75-2.35 2.6q-1 .99-2.03 1.93c-.8.73-1.58 1.45-2.43 2.14-.44.36-.85.78-1.31 1.14q-.56.43-1.17.85-1.3.92-2.7 1.73c-1.81 1.02-3.6 2.04-5.48 2.96a61 61 0 0 1-4.47 2.02c-.53.22-1.09.36-1.64.56-.76.27-1.07 1.2-.78 1.9a1.57 1.57 0 0 0 1.96.8M413.95 427.86h-.39q-.37.03-.68.29a1.45 1.45 0 0 0-.26 2.04c.22.27.6.56.97.56h.39q.37-.03.68-.29a1.45 1.45 0 0 0 .26-2.04c-.22-.27-.6-.56-.97-.56M409.27 430.02h-.4c-.23.03-.48.12-.67.3q-.47.37-.56.97-.07.6.3 1.07c.21.26.6.55.96.55h.4q.37-.03.67-.29.48-.37.56-.97c.05-.39-.05-.78-.3-1.07-.21-.3-.6-.56-.96-.56M404.39 433.2a1.4 1.4 0 0 0-1.34-.87q-.28 0-.55.1-1.94.7-3.86 1.31l-2.26.7c-.7.22-1.38.5-2.09.69a31 31 0 0 1-3.79.73q-.87.15-1.67.41c-.34.1-.65.46-.78.78-.14.36-.14.77 0 1.14.15.34.41.63.78.78.39.17.73.12 1.14 0l.12-.02c1.05-.25 2.11-.32 3.16-.56q1.96-.44 3.86-1.1c1.14-.39 2.3-.7 3.44-1.12q1.56-.5 3.11-1.07c.7-.26 1.02-1.19.73-1.9M380.34 438.65a1.2 1.2 0 0 0-.68.3q-.49.37-.56.97c-.05.38.04.78.3 1.07.2.26.6.56.96.56h.39q.37-.04.68-.3.47-.37.55-.97a1.4 1.4 0 0 0-.28-1.07c-.22-.26-.61-.56-.98-.56ZM457.25 378.53l-.02.04q.02 0 .02-.04m0 0"/><path fill="#e1bd8f" d="M461.98 362.68q-.39.97-.82 1.91l-.9 1.95q-.39.94-.82 1.87-.4.9-.83 1.78-.47.97-1 1.92-.44.87-.87 1.75-.4.72-.8 1.41c-.39.66-.82 1.26-1.21 1.92-.2.31-.15.8-.03 1.14q.24.53.76.8a1.38 1.38 0 0 0 1.82-.58c.7-1.1 1.4-2.16 2-3.3q.48-.86.88-1.73l.95-1.82c.6-1.2 1.12-2.44 1.68-3.68q.89-1.92 1.75-3.89.8-1.95 1.57-3.93c.46-1.27.85-2.58 1.29-3.85q.68-2 1.2-4.03c.35-1.3.54-2.6.81-3.92q.21-.85.34-1.7c.1-.63.13-1.26.17-1.9.03-.39-.02-.75-.26-1.07a1.5 1.5 0 0 0-.95-.58l-.2-.02c-.67 0-1.4.5-1.45 1.24-.08.8-.1 1.63-.27 2.43l-.46 2.28c-.15.76-.27 1.51-.46 2.24a37 37 0 0 1-1.05 3.6q-.3.86-.58 1.7a65 65 0 0 1-1.48 4.18q-.35.92-.78 1.88M453.88 384.46q.37-.49.32-1.1a1.6 1.6 0 0 0-.54-.97c-.34-.26-.68-.31-1.1-.31-.36 0-.74.26-.94.53q-.37.49-.32 1.1c.06.36.25.72.54.97.34.27.68.31 1.1.31.33 0 .72-.26.94-.53M449.12 389.64a1.4 1.4 0 0 0-.92-.32h-.17q-.58.09-.95.54-.44.5-.92.97l-.27.22c-.65.46-.75 1.4-.31 2.04.48.66 1.38.75 2.04.32.65-.46 1.18-1.12 1.72-1.7.56-.61.36-1.58-.22-2.07M437.98 407.36q1.2-1.21 2.3-2.5 1.1-1.26 2.02-2.63a14 14 0 0 0 1.77-3.48c.3-.72.03-1.57-.73-1.91a2 2 0 0 0-.58-.13c-.56 0-1.14.32-1.33.85-.3.78-.61 1.53-1.02 2.26a26 26 0 0 1-2.19 2.97c-.87 1-1.74 2-2.7 2.92q-1.02.94-2.06 1.92l.27-.27q-1.33 1.3-2.77 2.48c-.48.39-.99.7-1.5 1.07q-.73.52-1.5.97c-.32.17-.51.61-.58.95q-.08.62.26 1.07c.22.32.58.51.95.58.41.08.73-.07 1.07-.26q.76-.45 1.5-.97c.56-.4 1.1-.76 1.63-1.17.55-.44 1.04-.92 1.57-1.39q.67-.59 1.3-1.21l-.1.07c.84-.73 1.64-1.43 2.42-2.19M422.38 415.2c-.37 0-.76.26-.98.53q-.37.48-.31 1.09c.05.36.24.73.53.97.34.27.68.32 1.1.32.36 0 .74-.27.96-.54q.38-.49.32-1.09a1.5 1.5 0 0 0-.54-.97c-.33-.3-.67-.32-1.08-.32M411.33 424.16a42 42 0 0 0 3.08-1.92c.66-.44.75-1.4.32-2.04a1.4 1.4 0 0 0-1.14-.58q-.48.01-.88.26c-.77.51-1.55 1.05-2.37 1.51-1.24.66-2.55 1.14-3.86 1.68l-2.28.9q-1.11.45-2.24.8c-.34.1-.66.44-.8.75q-.25.57-.02 1.15.22.53.75.8c.39.17.75.14 1.14.02q.73-.2 1.45-.48.71-.27 1.36-.56 1.47-.6 2.9-1.15 1.32-.46 2.6-1.14M384.05 432.9c.43 0 .85-.1 1.26-.2q.79-.18 1.58-.42 1.22-.37 2.4-.82c.73-.3 1.48-.5 2.21-.76l2.38-.87c.75-.27 1.1-1.17.8-1.9-.24-.58-.78-.9-1.36-.9q-.27-.01-.53.1l-1.97.7q-.85.32-1.7.59c-1.26.44-2.48.94-3.76 1.29-.56.14-1.12.29-1.68.29-.36 0-.72.27-.94.53q-.38.49-.32 1.1c.05.36.24.73.54.97.34.24.7.31 1.1.3M461.55 336.8c.36 0 .75-.26.97-.53q.37-.49.32-1.1a1.6 1.6 0 0 0-.54-.97 1.6 1.6 0 0 0-1.1-.31c-.36 0-.74.27-.96.53q-.38.49-.32 1.1c.05.36.24.73.54.97.34.27.7.31 1.09.31M460.24 342.93c.36 0 .75-.27.97-.53q.37-.49.31-1.1a1.5 1.5 0 0 0-.53-.97c-.34-.27-.68-.31-1.1-.31-.35 0-.75.26-.94.53a1.5 1.5 0 0 0 .22 2.07c.31.26.65.31 1.07.31M453.03 357.52q-.62 1.27-1.36 2.5-.42.63-.8 1.25c-.2.31-.15.8-.03 1.14q.24.53.76.8c.36.17.77.17 1.14.02.34-.14.53-.36.72-.65l-.07.1q.23-.32.47-.69.35-.58.7-1.14l.85-1.53c.58-1.1 1.07-2.21 1.57-3.33.54-1.2 1.1-2.38 1.54-3.62l.7-2.07q.35-1.2.65-2.4c.1-.37-.05-.81-.26-1.1-.22-.32-.59-.51-.95-.59l-.22-.02q-.47 0-.87.29c-.34.25-.46.56-.59.95l-.43 1.65a47 47 0 0 1-2.3 5.89q-.59 1.28-1.22 2.55M448.8 370.96c.37 0 .76-.26.98-.53q.37-.49.31-1.1a1.6 1.6 0 0 0-.53-.97 1.6 1.6 0 0 0-1.1-.31c-.36 0-.75.27-.96.53q-.39.49-.32 1.1c.05.36.24.73.53.97.34.3.68.31 1.1.31M446.64 377q-.28-.12-.58-.12c-.56 0-1.11.31-1.33.84-.59 1.32-1.14 2.65-1.82 3.92a72 72 0 0 1-1.95 3.5q-.75 1.2-1.62 2.33-.44.55-.9 1.1-.45.5-.87 1a78 78 0 0 1-1.8 2.11q-1.08 1.3-2.23 2.48-.41.4-.85.75c-.34.3-.75.54-1.12.8-.73.52-1.38 1.13-2.1 1.66a1.5 1.5 0 0 0-.33 2.04c.47.63 1.41.78 2.04.32q.8-.64 1.56-1.3c.53-.45 1.19-.77 1.72-1.23a16 16 0 0 0 1.7-1.63q.81-.85 1.58-1.75.55-.65 1.12-1.29.57-.7 1.18-1.4c.37-.45.78-.86 1.12-1.3q.6-.73 1.14-1.5c1.04-1.44 1.84-3 2.72-4.55q.66-1.17 1.24-2.39.57-1.24 1.12-2.52c.33-.68 0-1.56-.74-1.87M410.43 411.08q.04-.02.07-.05l.25-.14zm0 0"/><path fill="#e1bd8f" d="m415.58 411.74.17-.1.05-.02q.08-.04.12-.08c.34-.2.68-.36 1.04-.56 1.2-.6 2.28-1.38 3.38-2.18a47 47 0 0 0 4.87-4.28l-.26.27.7-.66c.3-.27.51-.54.58-.95a1.6 1.6 0 0 0-.27-1.1 1.5 1.5 0 0 0-.94-.58l-.22-.02c-.32 0-.66.1-.87.29q-.73.66-1.41 1.31l.27-.26q-1.66 1.54-3.43 2.98a26 26 0 0 1-3.32 2.36q-.45.25-.9.5a2 2 0 0 0-.41.23l-.27.15q-.12.04-.24.12l-.08.05q-.01 0-.02.02-.81.47-1.65.86-1.03.43-2.01.94-.31.15-.56.35c-.66.46-.76 1.4-.32 2.03.49.66 1.38.76 2.04.32l.32-.2h.02c.54-.28 1.1-.48 1.65-.72.51-.22 1.02-.51 1.5-.78q.2-.1.37-.2c.05-.07.07-.07.1-.1M404.48 416.82c.37 0 .76-.27.98-.53q.37-.5.31-1.1a1.6 1.6 0 0 0-.53-.97c-.34-.27-.68-.32-1.1-.32-.36 0-.75.27-.96.54q-.38.48-.32 1.1c.05.35.24.72.53.96.34.27.68.32 1.1.32M397.23 417.48a1.5 1.5 0 0 0 .22 2.06c.34.27.68.32 1.09.32.36 0 .75-.27.97-.54.24-.31.37-.7.31-1.09a1.6 1.6 0 0 0-.53-.97c-.34-.27-.68-.32-1.1-.32-.38 0-.77.27-.96.54M386.74 425.52a30 30 0 0 0 3.11-1.29q.99-.42 1.92-.94c.58-.34 1.11-.7 1.67-1.07.68-.42.76-1.44.32-2.04a1.5 1.5 0 0 0-.95-.59l-.22-.02q-.45.02-.87.29-.8.52-1.63 1.02c-.68.37-1.4.66-2.11.97l-1.16.51q-.6.24-1.17.44c-.73.3-1.1 1.17-.8 1.9.3.75 1.14 1.1 1.9.82M379.7 427.2q.39-.48.32-1.1a1.6 1.6 0 0 0-.54-.97 1.6 1.6 0 0 0-1.09-.31c-.36 0-.75.27-.97.53q-.37.49-.31 1.1c.05.36.24.73.53.97.34.27.68.31 1.1.31.36-.02.74-.28.96-.53M444.48 356.84q0 .03 0 0l.03-.02q-.04.04-.07.1zm0 0"/><path fill="#e1bd8f" d="M445.8 354.38c-.42.83-.8 1.66-1.3 2.44 0-.03.04-.03.04-.05l-.03.05q.01-.03.03-.05l.07-.13-.15.25q-.02.03-.05.07-.42.65-.8 1.29c-.39.7.05 1.63.73 1.92.36.17.78.17 1.14.03q.52-.24.8-.76l.22-.36q.22-.32.44-.69-.04.06-.08.1l.1-.14q0 .01-.02.02.03-.08.07-.12-.04.04-.07.1l.07-.12.1-.18-.1.18.03-.05-.08.14a34 34 0 0 0 1.77-3.35q.85-1.79 1.65-3.58c.58-1.26 1.2-2.53 1.7-3.81a88 88 0 0 0 1.48-3.97l.3-.9.3-.87c.28-.7.45-1.46.66-2.2q.39-1.19.61-2.37.18-1.02.32-2.04l.65-4.28a1.47 1.47 0 0 0-1.21-1.66l-.22-.02c-.7 0-1.33.53-1.43 1.24q-.31 2-.6 3.99c-.2 1.36-.4 2.72-.78 4.03l.12-.36-.44 1.5q-.25.8-.54 1.56c-.21.58-.38 1.2-.58 1.77a77 77 0 0 1-3.25 7.84c-.6 1.19-1.11 2.38-1.67 3.54m0 0"/><path fill="#e1bd8f" d="m444.48 356.84.03-.02q0 .01-.03.02M444.41 356.98q.04-.04.03-.04t-.03.04M442.06 363.11c-.36 0-.76.27-.97.54q-.38.48-.32 1.1c.05.36.25.72.53.96.34.27.68.32 1.1.32.36 0 .75-.27.97-.53a1.5 1.5 0 0 0-.22-2.07c-.34-.27-.68-.32-1.1-.32M440.24 372.77q-.3-.12-.58-.13c-.56 0-1.14.32-1.34.85-.27.66-.53 1.32-.87 1.95q-.5.84-.95 1.68-.8 1.51-1.65 2.99c-.3.48-.58.94-.92 1.4l-1.07 1.44q-.3.4-.58.83c-.22.31-.49.6-.7.92q-.63.85-1.32 1.63l-1.21 1.31q-.6.66-1.24 1.32-1.24 1.44-2.55 2.84c-.75.8-1.5 1.63-2.3 2.4a47 47 0 0 1-4.93 4.12l-.9.63q-.5.37-1.04.7c-.32.2-.51.61-.59.95q-.06.62.27 1.07c.22.32.59.51.95.59.41.07.73-.05 1.07-.27.6-.37 1.16-.8 1.72-1.2q.9-.6 1.77-1.3.8-.64 1.56-1.32l1.38-1.26q1.48-1.37 2.84-2.85c.87-.95 1.77-1.87 2.62-2.86q.58-.67 1.19-1.3.6-.66 1.21-1.33.67-.73 1.29-1.5c.43-.6.92-1.18 1.36-1.78.68-.98 1.45-1.9 2.09-2.92a65 65 0 0 0 2.04-3.55q.46-.91 1.01-1.82c.44-.73.75-1.51 1.07-2.29s.05-1.63-.7-1.94M410.04 402.35q-.37.49-.31 1.1c.05.36.24.73.53.97.34.27.68.31 1.1.31.36 0 .75-.26.96-.53q.38-.48.32-1.1a1.6 1.6 0 0 0-.53-.97 1.6 1.6 0 0 0-1.1-.31c-.36 0-.75.27-.97.53M402.35 409.99q.89-.68 1.75-1.41c.6-.51.8-1.37.31-2.04a1.6 1.6 0 0 0-1.21-.59q-.45 0-.82.3l-1.46 1.18c-.49.4-1.02.71-1.53 1.03-.93.56-1.82 1.11-2.75 1.63q-.86.46-1.79.87c-.63.27-1.26.51-1.9.83q-.86.45-1.77.87-.44.21-.9.4-.27.1-.55.26-.46.2-.85.48a1.5 1.5 0 0 0-.32 2.05c.46.63 1.39.77 2.04.31q.04-.02.05-.05.68-.35 1.4-.63.8-.34 1.54-.75c1.07-.56 2.2-.95 3.27-1.48 1.3-.61 2.5-1.41 3.72-2.14.63-.4 1.21-.74 1.77-1.12M382.96 418.47q.37-.48.31-1.1a1.6 1.6 0 0 0-.53-.96 1.6 1.6 0 0 0-1.1-.32c-.36 0-.75.27-.96.54q-.38.49-.32 1.09c.05.36.24.73.53.97.34.27.68.32 1.1.32.36 0 .75-.27.97-.54M447.1 329.78c.37 0 .76-.27.98-.53q.37-.5.31-1.1a1.6 1.6 0 0 0-.53-.97c-.34-.27-.68-.32-1.1-.32-.36 0-.74.27-.96.54q-.39.48-.32 1.1c.05.36.24.72.54.96.34.27.68.32 1.09.32M438.4 350.59q-.46.94-.88 1.87l-.85 1.85q-.47.99-1 1.92-.5.95-1.01 1.88c-.68 1.16-1.3 2.35-1.97 3.52-.2.32-.15.8-.03 1.12q.24.53.76.8c.36.15.78.17 1.14.02.39-.14.58-.41.78-.75.62-1.05 1.16-2.16 1.8-3.23q1-1.72 1.88-3.48c.64-1.24 1.2-2.5 1.78-3.74.63-1.34 1.18-2.7 1.77-4.04a80 80 0 0 0 2.47-6.2c.4-1.17.8-2.33 1.1-3.52.26-1.17.43-2.36.68-3.53.14-.78-.46-1.53-1.22-1.65q-.1-.01-.22-.03c-.7 0-1.28.54-1.43 1.24q-.24 1.2-.43 2.41-.2 1.04-.5 2.04-.54 1.8-1.23 3.55-.75 1.94-1.55 3.87-.44 1.03-.92 2.06c-.34.66-.61 1.34-.93 2.02M431.98 369.2c.25-.32.37-.72.32-1.1a1.5 1.5 0 0 0-.53-.98c-.34-.26-.68-.31-1.1-.31-.36 0-.75.26-.97.53q-.37.49-.31 1.1c.05.36.24.73.53.97.34.27.68.32 1.1.32.36 0 .75-.27.96-.54M426.2 375.07c.06.37.25.73.54.98.34.26.68.31 1.1.31.36 0 .75-.27.96-.53q.39-.49.32-1.1a1.6 1.6 0 0 0-.53-.97c-.34-.27-.68-.31-1.1-.31-.36 0-.75.26-.97.53-.26.3-.36.7-.31 1.1M407.01 397.95c.68-.34 1.33-.8 1.97-1.24q.74-.5 1.48-.94 1.6-1.06 3.15-2.22c.51-.39.95-.8 1.43-1.21l1.48-1.24a39 39 0 0 0 3.04-2.65l.14-.15.22-.2q.82-.76 1.65-1.48c.7-.63 1.31-1.33 1.95-2.04.48-.53.9-1.14 1.3-1.72q.8-1.12 1.58-2.17c.46-.65.42-1.53-.22-2.04a1.4 1.4 0 0 0-.92-.32c-.44 0-.85.17-1.12.54-.38.53-.8 1.07-1.18 1.63-.32.43-.64.9-.95 1.3a23 23 0 0 1-2.16 2.49q-.48.44-.97.87-.57.52-1.12 1.05l.27-.27q-.26.23-.49.49l.05-.05a33 33 0 0 1-2.77 2.4c-.99.79-1.86 1.66-2.86 2.44a38 38 0 0 1-3.06 2.16q-1.5 1-3.03 1.97c-.32.17-.56.36-.7.7-.17.37-.17.79-.03 1.15.24.63 1.16 1.12 1.87.75M399.88 399.12q-.39.49-.32 1.1c.05.36.24.72.53.97.34.26.68.31 1.1.31.36 0 .75-.27.97-.53q.37-.49.31-1.1a1.6 1.6 0 0 0-.53-.97c-.34-.27-.68-.31-1.1-.31a1.6 1.6 0 0 0-.96.53M384.24 411.71l1.34-.63q.75-.32 1.48-.68c.44-.22.85-.36 1.31-.53q.7-.28 1.36-.61c1.02-.46 1.99-.97 2.89-1.65q1.39-1.03 2.74-2.1a1.5 1.5 0 0 0 .32-2.04 1.46 1.46 0 0 0-2.04-.29q-1.05.83-2.14 1.65-.84.64-1.7 1.2-.69.36-1.38.65-.88.4-1.75.73c-.58.22-1.1.54-1.67.78q-.91.39-1.82.85c-.34.17-.64.39-.78.75q-.24.57-.02 1.15c.26.65 1.16 1.11 1.86.77M378.08 413.88q.37-.49.31-1.1a1.6 1.6 0 0 0-.53-.97c-.34-.27-.68-.31-1.1-.31-.36 0-.74.26-.96.53q-.39.49-.32 1.1c.05.36.24.72.54.97.34.26.68.31 1.09.31.36-.02.75-.29.97-.53M407.76 320.59q.57-.75 1.1-1.53c.43-.69.82-1.36 1.18-2.1.32-.65.58-1.28.78-1.99.27-.9.44-1.82.63-2.72.07-.34-.12-.8-.34-1.07-.24-.3-.6-.48-1-.51H410a1.4 1.4 0 0 0-1.17.6q-.22.35-.27.71c-.07.4-.17.75-.24 1.14-.14.56-.27 1.12-.48 1.66q-.3.74-.64 1.43-.38.7-.8 1.34-.46.68-1 1.36c-.45.63-.28 1.58.35 2.02.63.48 1.55.32 2.01-.34M417.79 312.32c.4 0 .75-.07 1.07-.34.28-.24.48-.6.5-1 .08-.72-.53-1.57-1.3-1.57-.4 0-.76.07-1.08.34-.28.24-.48.6-.5 1-.08.75.5 1.57 1.3 1.57M410.02 325.57c-.48.64-.3 1.58.34 2.02.66.46 1.55.3 2.01-.34q.36-.51.73-1 .44-.55.83-1.14c.46-.7.85-1.43 1.26-2.19q.73-1.35 1.33-2.72c.42-.95.76-1.95 1.1-2.92.26-.75-.1-1.6-.85-1.87q-.25-.09-.49-.1a1.5 1.5 0 0 0-1.38.95 37 37 0 0 1-1.9 4.65q-.26.46-.53.97c-.22.4-.43.85-.7 1.24-.3.43-.56.87-.88 1.26q-.45.6-.87 1.2M407.57 332.8q.45-.4.5-1c.08-.73-.53-1.58-1.3-1.58-.4 0-.75.07-1.07.34-.3.24-.49.6-.5 1-.08.73.52 1.57 1.3 1.57.41 0 .75-.07 1.07-.34M424.07 320.35c.4 0 .75-.08 1.07-.35.3-.24.49-.6.51-1 .07-.72-.53-1.57-1.31-1.57-.39 0-.75.07-1.07.34q-.45.38-.5 1c-.1.73.5 1.58 1.3 1.58M418.86 329.15q-.03.04-.06.1 0-.02.03-.03zm0 0"/><path fill="#e1bd8f" d="m418.98 328.95-.15.25q-.03.03-.05.07.01-.02.02-.05l-.14.3c-.8 1.48-1.6 2.93-2.5 4.37-.44.68-.87 1.34-1.38 1.94q-.66.81-1.34 1.58c-.78.83-1.6 1.61-2.33 2.48-.24.3-.31.76-.24 1.12q.13.57.58.93c.32.22.73.31 1.1.24s.67-.3.91-.59q.01 0 .03-.04c1.43-1.53 2.91-3 4.15-4.67.68-.9 1.24-1.9 1.82-2.87q.95-1.65 1.82-3.33l.44-.83q.49-.87.9-1.82.39-1.03.6-2.1c.1-.38.15-.75-.04-1.11q-.29-.52-.8-.75-.26-.11-.52-.1-.33 0-.63.14c-.31.15-.65.47-.75.8-.14.61-.3 1.25-.5 1.83q-.25.62-.54 1.24-.31.58-.6 1.17zM406.52 345.85c.4 0 .76-.07 1.07-.34q.47-.38.51-1c.08-.72-.53-1.58-1.3-1.58-.42 0-.76.07-1.08.34q-.45.39-.5 1c-.08.75.53 1.58 1.3 1.58M397.5 354.26c.29-.3.65-.53 1-.8l1.01-.85 2.33-2.04c.6-.52.68-1.44.17-2.05q-.47-.5-1.12-.5-.51-.02-.92.34l-2.33 2.04q-.51.43-1.02.82c-.34.27-.68.51-1 .8-.28.3-.48.59-.5 1-.03.39.1.78.34 1.07.48.59 1.48.73 2.04.17M389.24 358.3c.4 0 .76-.07 1.07-.34q.47-.39.51-1c.07-.73-.53-1.58-1.3-1.58-.4 0-.76.07-1.08.34q-.45.38-.5 1c-.08.73.5 1.58 1.3 1.58M428.9 330.68c.4 0 .76-.07 1.07-.34q.47-.4.51-1c.07-.73-.53-1.58-1.31-1.58-.39 0-.75.08-1.07.34-.29.24-.48.61-.5 1-.1.75.5 1.58 1.3 1.58M420 347.9l-.1.09-.02.03zM417.88 345.92l.03-.02.02-.02zM420.16 347.7q.04-.05 0 0c.03 0 0 0 0 0M418.76 344.98l.02-.03q-.04.06-.1.12zm0 0"/><path fill="#e1bd8f" d="m417.71 346.12.25-.27.02-.03q-.16.15-.27.3m0 0"/><path fill="#e1bd8f" d="M423.93 337.73a31 31 0 0 1-4.23 6.18l-.94 1.04.12-.12-.15.15q.03-.06.1-.1l-.2.22.05-.05-.24.27.15-.15-.46.51q-.08.1-.2.2a42 42 0 0 0-2.2 2.52c-.69.8-1.37 1.63-2.07 2.4q-1.05 1.15-2.2 2.17c-.83.73-1.64 1.46-2.53 2.1-.32.19-.56.4-.68.77-.15.37-.12.78.05 1.14a1.46 1.46 0 0 0 1.94.69c1-.59 1.84-1.39 2.72-2.14q.57-.5 1.11-1l1-1.02c.82-.85 1.57-1.75 2.35-2.65.66-.75 1.26-1.56 1.94-2.3l.54-.6.2-.21.06-.08q-.02.05-.04.05l.07-.07q.02-.04.05-.05l-.05.05q.16-.17.31-.34l.4-.42.19-.21-.13.12q-.02.04-.1.1l-.04.05 1-1.1q-.1.11-.2.2 1.09-1.16 2.04-2.46.88-1.2 1.65-2.48a43 43 0 0 0 2.8-5.6c.3-.72-.15-1.6-.86-1.87q-.26-.1-.5-.1c-.59 0-1.12.4-1.37.96q-.65 1.64-1.45 3.23M403.8 362.26c.42 0 .76-.07 1.07-.34.3-.24.49-.6.51-1 .08-.72-.53-1.58-1.3-1.58-.4 0-.76.08-1.08.34-.29.25-.48.61-.5 1-.08.75.5 1.58 1.3 1.58M386.7 374.95c.38.15.75.1 1.14-.05q.76-.3 1.52-.68.76-.31 1.46-.65.76-.4 1.48-.88c.58-.36 1.2-.73 1.77-1.14.54-.34 1.02-.75 1.53-1.12l1.58-1.14q.7-.51 1.4-1.07.8-.64 1.56-1.34c.58-.53.7-1.43.17-2.04a1.44 1.44 0 0 0-2.04-.17c-.53.46-1.04.95-1.6 1.38l-1.53 1.17q-.81.6-1.65 1.22-.76.56-1.53 1.1c-.85.53-1.67 1.08-2.57 1.52-.44.22-.87.37-1.31.58-.49.22-.97.47-1.48.66a1.45 1.45 0 0 0-.7 1.95c.14.29.43.56.8.7M380.14 378.77c.4 0 .75-.07 1.07-.34.29-.24.49-.61.5-1 .08-.73-.53-1.58-1.3-1.58-.41 0-.75.08-1.07.34q-.45.4-.5 1c-.08.73.5 1.58 1.3 1.58M436.09 330.88c.41 0 .75-.08 1.07-.35.29-.24.48-.6.5-1 .08-.72-.53-1.57-1.3-1.57-.4 0-.76.07-1.07.34-.3.24-.49.6-.51 1-.08.75.53 1.57 1.3 1.57M432.88 340.67l.1-.17-.07.12q-.01.01-.03.05M432.86 340.7q.01-.03.02-.05v.02zM428.4 342.64l-1.17 1.73c-.49.7-1.02 1.36-1.39 2.11-.16.34-.1.8.05 1.14.17.34.47.61.8.76.37.14.78.12 1.12-.05q.45-.22.65-.66c.37-.6.83-1.19 1.22-1.77q.57-.85 1.14-1.7.5-.81 1-1.66.53-.9 1.02-1.84l.02-.08q.08-.12.12-.24l-.07.12q.4-.75.77-1.5l.1-.18.08-.17q0 .04-.06.08.54-1.08 1.05-2.14c.17-.34.1-.8-.05-1.14a1.6 1.6 0 0 0-.8-.76q-.25-.09-.51-.1-.34 0-.63.15c-.36.17-.56.46-.73.8q-.43.95-.9 1.87 0-.01.03-.02-.37.72-.76 1.43l-.21.42a28 28 0 0 1-1.9 3.4M423.32 351.03c-.41 0-.75.07-1.07.34-.29.24-.48.6-.5 1-.08.72.53 1.58 1.3 1.58.4 0 .75-.07 1.07-.34q.46-.4.51-1c.1-.73-.5-1.58-1.31-1.58M404.12 371.57c.24.3.6.49 1 .51q.6.03 1.06-.34c1-.75 2.02-1.45 3.02-2.23s2-1.51 2.98-2.34a44 44 0 0 0 5.58-5.56c.32-.4.58-.8.88-1.2.46-.63.29-1.58-.34-2.02a1.5 1.5 0 0 0-.83-.26c-.46 0-.92.22-1.21.6q-.86 1.21-1.82 2.32a49 49 0 0 1-4.93 4.54c-.41.34-.85.63-1.29.95q-.6.5-1.26.97c-.87.69-1.8 1.31-2.67 2-.63.48-.65 1.48-.17 2.06M398.8 374.1c-.38 0-.75.08-1.06.34-.3.24-.49.61-.51 1-.07.73.53 1.58 1.3 1.58.4 0 .76-.07 1.08-.34.29-.24.48-.61.5-1 .08-.73-.5-1.58-1.3-1.58M437.04 338.82c-.08.73.53 1.58 1.3 1.58.4 0 .76-.07 1.07-.34.3-.24.49-.6.51-1 .08-.72-.53-1.57-1.3-1.57-.4 0-.76.07-1.08.34-.29.26-.46.63-.5 1M432.9 347.67l-.14.3.05-.1-.05.1-.02.02q-.01.05-.03.05.03-.03.05-.1-.08.13-.12.24-.02.06-.05.1-.51.92-1.07 1.8-.7 1.18-1.43 2.31-.62.94-1.3 1.85l-.69.92c-.31.4-.65.73-.94 1.14-.46.66-.3 1.59.34 2.02.65.47 1.55.3 2-.34q.46-.57.96-1.14c.24-.3.43-.61.68-.93q.7-.93 1.36-1.91.73-1.16 1.45-2.34.7-1.15 1.34-2.33-.1.17-.17.34l.07-.15.07-.14q.06-.1.1-.2l-.05.1.17-.32v.03l.2-.4v.03q.07-.14.14-.26.02-.05.05-.08v-.02q.3-.52.56-1.05.48-.9.92-1.82c.17-.34.1-.8-.05-1.14-.17-.34-.46-.61-.8-.73q-.26-.09-.5-.1-.35 0-.64.15c-.36.16-.58.46-.75.8l-.56 1.14q-.16.25-.27.51l-.44.8.03-.07zm-.26.51.07-.14q.01-.04.03-.05zm0 0"/><path fill="#e1bd8f" d="M436.43 347.21q-.01.03-.03.08-.02.04-.04.1.03-.11.07-.18M423.05 363.57c-.07.73.54 1.59 1.31 1.59.4 0 .76-.08 1.07-.35.3-.24.49-.6.51-1 .08-.72-.53-1.57-1.3-1.57-.42 0-.76.07-1.08.34-.29.24-.46.6-.5 1M401.94 383.1c-.64.46-.66 1.48-.17 2.04a1.46 1.46 0 0 0 2.03.2c.93-.57 1.8-1.22 2.7-1.83q1.4-.86 2.8-1.72.94-.61 1.86-1.25.72-.53 1.46-1.11c1-.76 1.9-1.66 2.74-2.53 1.02-1.05 1.9-2.22 2.82-3.33.58-.7 1.06-1.46 1.55-2.24.41-.68.31-1.56-.34-2.02a1.5 1.5 0 0 0-.85-.27c-.46 0-.92.2-1.2.61q-.4.64-.82 1.3-.43.64-.94 1.2c-.58.71-1.12 1.42-1.72 2.12a30 30 0 0 1-5.15 4.45l-2.67 1.65q-.82.5-1.63 1.05l-1.48 1.04q-.53.32-1 .64M395.7 386.84c-.07.73.53 1.58 1.31 1.58.41 0 .75-.07 1.07-.34.3-.24.48-.6.5-1 .08-.72-.53-1.58-1.3-1.58-.42 0-.76.08-1.07.34q-.46.41-.51 1M387.7 394.28q.74-.38 1.47-.8.65-.38 1.29-.78-.04.05-.08.05l.2-.14.1-.08-.06.02q1.16-.76 2.31-1.57c.3-.22.49-.64.51-1 .02-.39-.1-.78-.34-1.07q-.38-.46-1-.51h-.12q-.52.02-.94.34-1.04.73-2.09 1.43.16-.1.32-.2l-.37.25.03-.02q-.56.34-1.14.65-.66.42-1.36.76a1.5 1.5 0 0 0-.7 1.94 1.5 1.5 0 0 0 1.96.73M379.78 395.16c-.3.24-.49.6-.51 1-.07.72.53 1.57 1.3 1.57.4 0 .76-.07 1.07-.34.3-.24.5-.6.52-1 .07-.72-.54-1.57-1.32-1.57-.4 0-.75.07-1.06.34M599.12 388.52a1.46 1.46 0 0 0 0-2.92c-.8 0-1.46.66-1.46 1.46 0 .78.66 1.46 1.46 1.46M584.07 419.54l.1-.07-.05.05q-.05.01-.05.02M584 419.59q.03-.02.07-.05h-.02q-.03.05-.05.05m0 0"/><path fill="#e1bd8f" d="M576.57 423.48c.32.17.78.27 1.12.15 1.26-.47 2.38-1.2 3.47-1.95a83 83 0 0 0 2.89-2.11q.03-.03.07-.05.03-.05.07-.05-.01 0-.02.02.04-.02.05-.04l.21-.18q-.03.03-.07.05l.22-.17-.15.12.15-.12.07-.04q-.04.02-.04.04c1.01-.8 2.06-1.6 2.98-2.5.56-.54 1.14-1 1.68-1.56q.63-.7 1.23-1.4a33 33 0 0 0 6.29-10.17 41 41 0 0 0 1.14-3.36q.2-.86.44-1.72.26-.98.5-2c.15-.65.35-1.28.5-1.94q.28-1.2.4-2.46c.05-.36-.16-.77-.43-1.02a1.5 1.5 0 0 0-1.02-.43q-.6 0-1.02.43c-.3.3-.39.64-.44 1.02l-.02.32c-.15.93-.41 1.85-.63 2.77-.25.95-.46 1.92-.73 2.87q-.16.62-.32 1.29-.15.58-.34 1.17-.43 1.24-.9 2.48l-.8 1.75q-.45 1-1.01 1.97a35 35 0 0 1-2.38 3.52q-.68.84-1.39 1.63-.75.92-1.62 1.73a57 57 0 0 1-3.62 3.16q-.33.26-.68.5l.3-.21q-.21.16-.42.31-1.31 1-2.67 1.95c-.85.6-1.7 1.17-2.65 1.6l-.07.03c-.36.15-.65.32-.87.68-.2.34-.25.75-.15 1.12.12.3.37.6.68.8M558.73 428.3c1.24-.05 2.48-.27 3.7-.5.91-.16 1.86-.3 2.76-.53q.7-.16 1.43-.26.8-.16 1.58-.4.7-.15 1.36-.36c.53-.14 1.07-.39 1.57-.6.37-.15.66-.32.88-.66.2-.34.24-.76.14-1.12q-.16-.57-.68-.87a1.5 1.5 0 0 0-.75-.22 1 1 0 0 0-.36.07q-1.3.56-2.67.9l-1.22.29q-.73.18-1.48.32c-.82.17-1.67.36-2.5.48q-1.28.24-2.54.44-.63.07-1.27.1c-.8.02-1.45.63-1.45 1.46.07.77.73 1.48 1.5 1.46M550.46 428.32a1.46 1.46 0 0 0 0-2.92 1.46 1.46 0 0 0 0 2.92M603.88 402.48q.01-.03.02-.05-.03.02-.02.05m0 0"/><path fill="#e1bd8f" d="M598.54 406.24c-.4.69-.17 1.58.5 2 .69.38 1.6.17 2-.54.48-.87 1.04-1.72 1.5-2.6q.75-1.32 1.34-2.67v-.03q.47-1.12.87-2.28.35-1.09.63-2.22l.68-2.47q.34-1.18.63-2.34c.17-.78-.22-1.58-1.02-1.8l-.36-.05c-.63 0-1.26.42-1.4 1.07q-.29 1.13-.59 2.24-.33 1.23-.68 2.48l-.6 2.11q-.32.95-.69 1.85-.04.13-.1.24c-.36.86-.82 1.68-1.26 2.5-.46.86-.99 1.69-1.45 2.51M604.02 402.13l-.12.3zM598.15 412.71c0-.8-.66-1.46-1.46-1.46s-1.46.66-1.46 1.46.66 1.46 1.46 1.46a1.5 1.5 0 0 0 1.46-1.46M570.82 430.8q-.69.1-1.38.22l-.34.02q-.8.1-1.58.22.04 0 .1-.02l-.22.02q-.38.12-.63.37c-.27.26-.44.65-.44 1.02q0 .6.44 1.02c.24.24.68.46 1.02.41q.6-.08 1.23-.17l.66-.07q.15-.02.29-.03h.05l1.94-.34q.7-.18 1.36-.38 1.09-.33 2.18-.61 1.05-.3 2.11-.6 1.1-.36 2.14-.81l.88-.37.94-.39-.34.15q1.83-.75 3.47-1.85c1.07-.73 2.02-1.63 2.96-2.5q.5-.49 1.02-.98c.39-.36.83-.7 1.22-1.04.4-.37.82-.7 1.23-1.1q.67-.65 1.3-1.38c.23-.32.43-.61.43-1.02q0-.6-.44-1.02a1.6 1.6 0 0 0-1.07-.44c-.36 0-.73.12-.97.44q-.78.94-1.67 1.77c-.59.54-1.19 1.02-1.78 1.56-1.11.97-2.13 2.04-3.27 2.99a16 16 0 0 1-3.47 1.94l-1.02.44.34-.14q-.51.22-1.02.4c-1.24.5-2.5.86-3.79 1.22q-.94.28-1.9.54c-.77.2-1.5.48-2.3.6.05-.07.2-.09.32-.09M558.17 433.72c0 .8.66 1.46 1.46 1.46a1.46 1.46 0 0 0 0-2.92c-.8 0-1.46.68-1.46 1.46M545.36 434.6q1.09.24 2.18.38-.19-.02-.39-.05l.8.15c.17.02.35.07.54.07q.75.17 1.53.24.69.08 1.38.08h.68q.48-.05.95-.12c.39-.05.75-.17 1.14-.25.78-.14 1.21-1.07 1.02-1.8-.1-.36-.34-.68-.66-.87a1.5 1.5 0 0 0-1.11-.15c-.42.08-.8.2-1.22.27q-.54.03-1.1 0a7 7 0 0 1-1.06-.07l-1-.17h-.02.08-.08q-.17-.05-.34-.05-.58-.12-1.16-.2.15.03.29.05c-.56-.07-1.1-.2-1.63-.31q-.18-.05-.36-.05c-.66 0-1.24.39-1.43 1.07-.27.73.2 1.6.97 1.77M542.18 440.2c.8 0 1.46-.65 1.46-1.45s-.66-1.46-1.46-1.46-1.46.66-1.46 1.46.66 1.46 1.46 1.46M532.69 467.22l.22-.29c-.08.07-.12.14-.2.24q-.01.05-.02.05M538.83 456.3q-.03.05-.05.1l-.1.24zm0 0"/><path fill="#e1bd8f" d="M536.26 461.6q.69-1.23 1.33-2.5c.46-.88.83-1.8 1.2-2.7q.36-.84.7-1.68.55-1.23.97-2.55c.26-.87.58-1.75.82-2.65q.32-1.09.56-2.21c.17-.95.39-1.9.5-2.85.06-.4.08-.75-.14-1.12a1.5 1.5 0 0 0-.87-.65l-.39-.05q-.4 0-.73.2c-.29.16-.63.5-.68.87a42 42 0 0 1-2.72 9.92l-.63 1.53.15-.34q-.32.75-.6 1.48a77.22 77.22 0 0 1-3.54 6.61c-.5.86-1.08 1.64-1.66 2.44-.15.2-.3.36-.41.56q-.46.52-.88 1.04c-.22.3-.24.78-.14 1.12q.17.57.65.88c.34.2.75.24 1.12.14.31-.07.5-.24.7-.46q.6-.7 1.14-1.43 1.1-1.38 2-2.9.82-1.35 1.55-2.7M526.5 469.26c-.8 0-1.46.66-1.46 1.46s.66 1.46 1.46 1.46 1.46-.66 1.46-1.46a1.5 1.5 0 0 0-1.46-1.46M532.74 448.13l.05-.12q-.03.08-.05.12m0 0"/><path fill="#e1bd8f" d="M531.09 451.25q.55-.82 1-1.66.38-.76.7-1.58l.04-.12-.02.05q-.01.02-.02.05v-.03q.02-.04.04-.1-.01.03-.02.05.02-.05.05-.09l.05-.12.02-.05v.02c.44-1.02.8-2.06 1.21-3.08.15-.34.03-.8-.14-1.13q-.32-.47-.87-.67-.18-.05-.4-.05-.39 0-.72.2c-.37.21-.53.5-.68.87l-.95 2.5-.2.49q.01-.05.03-.05-.53 1.26-1.23 2.45-.73 1.13-1.51 2.22-1.52 2.17-3.1 4.3-.35.39-.69.78-.35.41-.7.85c-.27.31-.44.6-.44 1.02q0 .6.44 1.02c.27.27.66.44 1.02.44s.8-.15 1.02-.44l.92-1.1c.41-.45.8-.97 1.17-1.45.38-.54.8-1.05 1.16-1.58l.92-1.3q.99-1.35 1.9-2.71m-.95-4.4.07-.2-.17.42zm0 0"/><path fill="#e1bd8f" d="M532.88 447.8q0 .01 0 0-.02.06-.02.1 0-.08.02-.1M519.07 461.53c-.36 0-.75.15-1.04.42-.6.53-1.14 1.14-1.77 1.65q-.68.58-1.41 1.14-.7.54-1.43 1-.4.26-.8.48-.38.21-.76.42a1.46 1.46 0 0 0-.5 1.99c.38.68 1.3.95 1.98.51q.41-.25.83-.46l.95-.59q.98-.65 1.89-1.38.73-.58 1.45-1.19.83-.75 1.66-1.53c.58-.54.53-1.51 0-2.07q-.49-.4-1.05-.39M521.62 448.86a1.4 1.4 0 0 1-.42 1.03 1.5 1.5 0 0 1-1.04.43 1.46 1.46 0 0 1-1.34-2.02 1.4 1.4 0 0 1 .79-.78 1.5 1.5 0 0 1 1.59.31q.2.21.3.47.12.27.12.56M511.14 461.34q1.73-1.34 3.06-3.12c.77-1.06 1.38-2.2 2.03-3.35.4-.68.17-1.58-.5-2q-.36-.19-.73-.19c-.52 0-1 .27-1.27.7-.68 1.17-1.3 2.37-2.09 3.43a15 15 0 0 1-2.25 2.24l-.05.05.02-.03-.12.1q-.08.08-.17.15.03-.02.05-.03-.16.13-.32.27l-2.64 1.97q-.68.5-1.41.92l-.73.4q-.3.14-.6.31c-.32.24-.56.48-.66.88-.1.36-.05.77.15 1.11q.3.5.87.66c.34.1.83.07 1.12-.15.22-.16.48-.26.73-.39q.44-.21.87-.46c.66-.34 1.26-.85 1.84-1.31q1.33-.97 2.65-1.97l.12-.07.17-.15q-.1-.02-.14.03m0 0"/><path fill="#e1bd8f" d="m510.94 461.48.02-.02zq.03 0 0 0M504 457.81q.55-.7 1.07-1.46c.24-.39.43-.78.65-1.19.49-.95.8-1.97 1.12-2.96a1.5 1.5 0 0 0-1.02-1.8q-.17-.05-.39-.05a1.5 1.5 0 0 0-1.4 1.07q-.3.96-.66 1.92-.58 1.27-1.4 2.4l-.76.88q-.47.55-.97 1.07c-.51.49-.92 1.07-1.46 1.53l-.07.03c-.7.36-.9 1.33-.51 1.99.4.7 1.28.87 1.99.51.44-.22.8-.6 1.14-.97q.4-.46.8-.88c.32-.34.63-.65.95-1.02.29-.36.63-.7.92-1.07M495.94 463.16a1.46 1.46 0 0 0 0 2.92c.8 0 1.46-.66 1.46-1.46a1.5 1.5 0 0 0-1.46-1.46M491.72 453.82a1.6 1.6 0 0 0-1.14-.14c-.34.1-.73.34-.88.68-.24.53-.46 1.1-.75 1.6q-.35.6-.75 1.1-.5.65-1.1 1.26c-.4.44-.87.8-1.33 1.17-.29.22-.43.68-.43 1.02 0 .39.14.76.43 1.02q.42.42 1.02.44c.41 0 .7-.17 1.02-.44q1.35-1.04 2.4-2.38.63-.77 1.15-1.58c.34-.53.58-1.14.84-1.73.18-.36.27-.7.15-1.12-.05-.38-.31-.7-.63-.9M482.71 452.36a1.46 1.46 0 0 0 0 2.92c.8 0 1.46-.65 1.46-1.46s-.68-1.46-1.46-1.46M480.48 457q-.34-.18-.73-.19c-.5 0-1.02.25-1.26.71-.3.53-.56 1.1-.9 1.6q-.45.55-.97 1.02c-.58.54-.53 1.51 0 2.07.58.59 1.48.54 2.06 0q.74-.68 1.36-1.5c.39-.54.68-1.12.98-1.7a1.5 1.5 0 0 0-.54-2M433.98 452.34a1.4 1.4 0 0 1-.43 1.03 1.5 1.5 0 0 1-1.03.43 1.46 1.46 0 0 1-1.34-2.02 1.4 1.4 0 0 1 .78-.79 1.45 1.45 0 0 1 1.9.8q.12.26.12.55M430.21 455.84a1.49 1.49 0 0 0-1.12.14c-.36.23-.5.52-.67.88q-.08.16-.12.32c-.42.92-.83 1.85-1.41 2.68-.68.82-1.53 1.48-2.35 2.13q-.4.31-.8.56c-.69.4-.93 1.31-.52 2 .42.7 1.29.92 2 .5.3-.16.6-.4.9-.62q.54-.4 1.04-.83c.6-.49 1.18-.98 1.7-1.56q.74-.9 1.28-1.92.6-1.24 1.12-2.5c.14-.34.02-.83-.15-1.12a1.6 1.6 0 0 0-.9-.66M439.95 450.71a1.5 1.5 0 0 0-1.8 1.02q-.34 1.3-.73 2.56-.3.9-.65 1.8a17 17 0 0 1-1.97 3.42c-.82 1.03-1.77 1.9-2.64 2.85a1.5 1.5 0 0 0 0 2.07c.53.53 1.52.58 2.06 0 .78-.83 1.6-1.61 2.35-2.48q1.12-1.31 1.95-2.8a21 21 0 0 0 1.45-3.26c.39-1.12.68-2.24 1.02-3.38a1.5 1.5 0 0 0-1.04-1.8M450.48 450.98c.2-.78-.24-1.58-1.02-1.8l-.36-.05c-.64 0-1.26.41-1.41 1.07a23 23 0 0 1-1.14 3.65q-.54 1.23-1.29 2.36c-.22.29-.36.58-.36.97q0 .6.44 1.02c.53.53 1.52.6 2.06 0 .92-1.1 1.53-2.43 2.06-3.74.42-1.1.73-2.29 1.02-3.48M444.5 460.68c-.2-.12-.48-.2-.72-.2q-.19 0-.39.06c-.39.1-.65.33-.87.67-.44.64-.82 1.27-1.26 1.9l-.34.37c-.56.56-.56 1.5 0 2.06s1.48.56 2.06 0c.82-.83 1.4-1.9 2.06-2.84.42-.68.1-1.66-.53-2.02M456.57 450.3q-.6 0-1.02.43c-.29.3-.39.64-.43 1.03q-.01.1-.03.24c-.14.97-.34 1.92-.7 2.84q-.27.61-.59 1.22-.43.83-.92 1.65a1.5 1.5 0 0 0 .54 2c.65.39 1.6.17 1.99-.51.31-.59.65-1.12.95-1.7q.42-.87.8-1.78c.5-1.24.72-2.6.87-3.94.05-.36-.17-.78-.44-1.02a1.3 1.3 0 0 0-1.02-.46M450.7 462.77c-.8 0-1.46.66-1.46 1.46s.66 1.46 1.46 1.46 1.46-.66 1.46-1.46-.68-1.46-1.46-1.46M465.29 452.07a1.46 1.46 0 0 0 0 2.92 1.46 1.46 0 0 0 0-2.92M472.35 451.83a1.46 1.46 0 0 0 0 2.92c.8 0 1.45-.66 1.45-1.46s-.68-1.46-1.45-1.46M470.92 457.52l-.4-.05c-.62 0-1.18.44-1.4 1.07q-.33 1.04-.73 2.12l-.17.36c-.2.41-.43.75-.7 1.1-.22.29-.24.77-.14 1.11q.15.57.67.88c.34.2.75.24 1.12.14.41-.12.63-.36.87-.68q.47-.6.8-1.28.26-.5.44-1.05.35-.96.68-1.95c.22-.72-.3-1.58-1.04-1.77M611.38 400.92a1.46 1.46 0 0 0 0-2.92c-.8 0-1.46.66-1.46 1.46.03.8.68 1.46 1.46 1.46M610.09 407.43l-.07.15-.07.2q.07-.18.14-.35M599.82 424.82l-.02.02-.1.15a.4.4 0 0 1 .12-.17m0 0"/><path fill="#e1bd8f" d="M605.07 410.98c-.64 1.17-1.32 2.34-1.95 3.5-.53 1-1.16 1.95-1.72 2.95q-.96 1.66-2.09 3.23l-1.82 2.48q-.67.88-1.45 1.68a68 68 0 0 1-3.86 3.55c-.61.5-1.22 1.04-1.82 1.53q-.65.47-1.29.95-.76.5-1.58.9c-.63.31-1.2.65-1.82 1.02-.68.41-1.33.87-2.04 1.29a1.46 1.46 0 0 0 1.48 2.5c1.24-.7 2.38-1.58 3.67-2.21q.8-.4 1.53-.85.7-.5 1.43-1.02c1.17-.86 2.23-1.85 3.33-2.77a39 39 0 0 0 2.93-2.75q.97-.99 1.8-2.12l2.23-2.99a41 41 0 0 0 2.1-3.28q.4-.7.84-1.39.43-.74.85-1.48l1.94-3.5c.39-.75.83-1.48 1.21-2.21.42-.78.76-1.58 1.1-2.38q.38-.93.75-1.88c.14-.34.05-.8-.15-1.12a1.5 1.5 0 0 0-1.26-.7q-.4 0-.73.2c-.34.21-.53.5-.65.87q-.23.61-.49 1.24.01-.03.03-.08l-.46 1.07c-.61 1.3-1.36 2.5-2.04 3.77M577.47 438.8c0 .8.65 1.46 1.46 1.46s1.45-.66 1.45-1.46-.65-1.46-1.45-1.46-1.46.66-1.46 1.46M568.13 443.68q.93-.35 1.86-.65c.66-.22 1.31-.41 1.92-.73.7-.37.9-1.34.51-2-.27-.46-.75-.7-1.24-.7q-.37 0-.75.2l-.22.1c-.48.16-1 .3-1.48.5q-.76.3-1.53.54c-.85.29-1.75.56-2.64.7-1.68.17-3.35.13-5.03.1-1.55 0-3.13 0-4.66-.2l.17.03-1.07-.14q-1.22-.2-2.45-.37c-.36-.05-.77.17-1.02.44q-.41.42-.43 1.02 0 .6.43 1.02c.3.3.64.36 1.02.44l.63.07.9.15q.6.1 1.22.17 1.95.26 3.9.26 2 .04 3.98.03a16 16 0 0 0 5.98-.98M612.3 413.32l-.32.78q-.39.86-.9 1.65c-.33.56-.65 1.17-.99 1.73q-.55.87-1.14 1.67c-.36.54-.7 1.07-1.1 1.58q-.38.49-.74 1l-.95 1.24a33 33 0 0 1-1.73 2.02c-.65.7-1.33 1.36-1.96 2.09q-.42.44-.44 1.02c0 .39.15.76.44 1.02.53.54 1.53.59 2.06 0 .76-.85 1.58-1.63 2.33-2.48.75-.82 1.43-1.75 2.11-2.62l.9-1.17q.7-.9 1.34-1.82c.48-.73 1-1.44 1.45-2.17.4-.65.75-1.34 1.17-1.97.56-.87.92-1.85 1.31-2.8.15-.33.02-.82-.15-1.11q-.3-.49-.87-.68l-.39-.05q-.39 0-.75.2a1.6 1.6 0 0 0-.68.87M601.55 432.48c0-.8-.66-1.46-1.46-1.46a1.46 1.46 0 0 0 0 2.92c.8 0 1.46-.66 1.46-1.46M577.27 449.64q.79-.3 1.56-.66 1.86-.81 3.71-1.67l1.36-.59c.92-.36 1.87-.7 2.8-1.11.96-.44 1.86-1.07 2.76-1.61q1.41-.82 2.72-1.82.6-.51 1.21-1.07l1.29-1.15c.58-.53.53-1.5 0-2.06a1.4 1.4 0 0 0-1-.42c-.36 0-.75.15-1.04.42-.83.75-1.63 1.5-2.5 2.21q-1.21.87-2.5 1.6-.8.5-1.55.95-.58.32-1.2.59-.77.3-1.55.6-.83.34-1.62.71c-1.39.58-2.75 1.24-4.1 1.85l-.64.27q-.43.2-.9.31l-1.23.34c-.7.2-1.43.42-2.16.58q-1.15.25-2.28.5c-.7.14-1.41.3-2.12.4-.34.05-.7.05-1.04.08q-.72.05-1.46.17c-.33.05-.7.36-.87.65-.2.34-.24.76-.14 1.12q.16.57.65.88c.36.22.73.22 1.12.15q.17-.05.34-.06l1.19-.04q.88-.08 1.72-.27c1.02-.22 2.06-.39 3.1-.63q.7-.16 1.41-.34.7-.2 1.41-.37c.49-.2 1.05-.31 1.55-.5M547.2 448.1q-.35-.18-.75-.19c-.49 0-.97.25-1.24.71-.39.66-.17 1.63.54 2a10 10 0 0 0 4.46 1.38q.68.1 1.36.14 1.31.2 2.65.22 1.38.03 2.76.05a1.46 1.46 0 0 0 0-2.92q-1.7.02-3.44-.07-.78-.03-1.56-.14-.78-.1-1.57-.17c-.78-.13-1.56-.27-2.28-.54q-.47-.2-.93-.46M547.62 455.94c0-.8-.66-1.46-1.46-1.46a1.46 1.46 0 0 0 0 2.92 1.5 1.5 0 0 0 1.46-1.46M542.15 467.44q.5-.87.98-1.78c.31-.6.58-1.26.92-1.87q.46-.88.9-1.75l.29-.58c.17-.37.26-.73.14-1.12a1.45 1.45 0 0 0-1.4-1.07 1.4 1.4 0 0 0-1.27.7q-.6 1.25-1.26 2.48c-.41.78-.73 1.59-1.16 2.34l-.64 1.17q-.32.57-.72 1.11l-1.31 1.83c-.25.3-.54.58-.78.87q-.47.56-.97 1.07c-.66.68-1.39 1.3-2.11 1.87-.3.25-.44.68-.44 1.02q0 .61.44 1.03c.26.26.65.44 1.02.44.4 0 .72-.18 1.02-.44.94-.8 1.91-1.6 2.71-2.53.42-.49.88-.93 1.27-1.41q.64-.83 1.26-1.7c.39-.54.78-1.07 1.11-1.68M556.18 456.96c.15-.34.03-.8-.14-1.12a1.5 1.5 0 0 0-.88-.66l-.38-.04q-.4 0-.73.2-.5.31-.66.87-.57 1.47-1.14 2.94a39 39 0 0 1-3.3 6.2q-.36.44-.68.92l-.68 1-.17.2a1.46 1.46 0 1 0 2.06 2.07c.64-.66 1.07-1.5 1.63-2.25q.44-.54.83-1.11.3-.5.6-1.03a46 46 0 0 0 2.55-5.27c.37-.97.7-1.95 1.1-2.92M545.8 472.08c-.22-.12-.5-.2-.73-.2q-.2 0-.39.06c-.34.1-.7.34-.88.65q-.38.9-.92 1.7-.45.51-.97.98-.47.48-1 .92-.02 0-.04.05-.5.31-.66.88c-.1.36-.05.77.15 1.11.36.64 1.33.98 1.99.54q.68-.49 1.29-1.1.55-.48 1.06-1.02a9 9 0 0 0 1.63-2.57c.17-.37.27-.73.14-1.12q-.16-.57-.67-.88M562.86 455.26q-.18-.05-.37-.05c-.63 0-1.26.42-1.4 1.07q-.23.94-.42 1.9-.2.82-.46 1.65-.24.8-.48 1.6-.26.74-.56 1.46c-.3.68-.66 1.29-1.04 1.95q-.63 1.02-1.22 2.09c-.36.63-.68 1.31-1.09 1.94q-.75 1.08-1.46 2.17c-.41.68-.14 1.6.54 2 .7.4 1.55.14 1.99-.54.68-1.07 1.43-2.05 2.04-3.16a80 80 0 0 1 1.74-3.1q.49-.78.9-1.6c.32-.65.56-1.34.83-2.01a36 36 0 0 0 1.53-5.57c.12-.78-.3-1.58-1.07-1.8M550.24 476.02c-.8 0-1.46.66-1.46 1.46s.66 1.46 1.46 1.46 1.45-.66 1.45-1.46c0-.78-.65-1.46-1.45-1.46M571.1 453.85a1.46 1.46 0 0 0 0 2.92 1.46 1.46 0 0 0 0-2.92M570.07 459.76a1.43 1.43 0 0 0-1.77 1.02c-.32 1.24-.56 2.5-1.02 3.7a31 31 0 0 1-1.58 2.74c-.41.68-.15 1.6.5 2 .71.4 1.59.14 2-.52a21 21 0 0 0 1.82-3.33c.48-1.24.75-2.55 1.07-3.84.2-.75-.25-1.55-1.02-1.77M581.7 451.03q-.61 0-1.03.43c-.29.3-.38.64-.43 1.03l-.08.7c-.26 1.8-.65 3.58-1.04 5.35-.17.78-.41 1.53-.63 2.31q-.35 1.16-.78 2.29-.02.04-.05.1-.45 1.09-1 2.16-.3.57-.65 1.14c-.22.37-.48.7-.7 1.07-.39.68-.17 1.58.51 2 .68.38 1.6.16 1.99-.52q.34-.58.73-1.12.37-.6.7-1.26.58-1.13 1.05-2.31.02-.04.04-.1.03-.08.05-.12-.02.05-.05.1a34 34 0 0 0 1.63-5.13c.49-2.19.97-4.38 1.16-6.61.03-.37-.17-.78-.43-1.02-.24-.34-.6-.5-1-.5M590.9 446.75a1.46 1.46 0 0 0 0 2.92 1.46 1.46 0 0 0 0-2.92M589.7 453.14q-.6 0-1.02.44c-.29.3-.39.63-.43 1.02q-.06.5-.1.97-.1.66-.17 1.32-.1.73-.3 1.46c-.14.53-.36 1.04-.55 1.58-.41 1.11-.8 2.23-1.26 3.35q-.45.93-.92 1.83c-.37.65-.76 1.3-1.05 2.01-.14.34-.02.83.15 1.12q.3.49.87.68c.37.1.78.05 1.12-.14q.42-.25.58-.69-.01.03-.03.05.3-.61.64-1.19l.72-1.3c.32-.6.56-1.2.8-1.81q.33-.77.59-1.55c.31-.93.7-1.8 1-2.7.28-.9.4-1.8.53-2.73q.17-1.13.29-2.24c.05-.36-.17-.77-.44-1.01a1.3 1.3 0 0 0-1.02-.47M624.7 416.33a1.46 1.46 0 0 0 0-2.92c-.8 0-1.45.66-1.45 1.46s.68 1.46 1.45 1.46M613.22 431.29q-.1.12-.2.26-.15.18-.26.34a1 1 0 0 0-.2.27l-.04.05q-.25.34-.49.63l-.24.32q-.75.95-1.48 1.94-.57.73-1.22 1.44l-1.43 1.55c-.87.98-1.84 1.87-2.81 2.75-.88.8-1.82 1.56-2.72 2.34q-.68.62-1.4 1.21-.84.68-1.66 1.41l-1.38 1.17-.51.34a1.5 1.5 0 0 0-.54 2c.41.67 1.31.92 2 .53.55-.32 1.06-.76 1.55-1.17q.78-.67 1.58-1.34c1.02-.83 1.96-1.72 2.96-2.58q1.36-1.13 2.66-2.33.75-.68 1.49-1.4l1.38-1.5a30 30 0 0 0 3.06-3.69l.9-1.14-.22.29q.1-.12.2-.24 0 .01-.03.02l.68-.9q.05-.08.12-.14.07-.08.1-.15.08-.1.16-.22.05-.04.06-.07l-.06.07.76-.97-.22.3a106 106 0 0 0 3.86-5.29c1.24-1.82 2.16-3.86 3.13-5.83.17-.36.27-.73.15-1.12a1.45 1.45 0 0 0-1.41-1.07c-.51 0-1.02.25-1.27.7q-.73 1.5-1.48 3c-.46.87-.9 1.75-1.45 2.57a99 99 0 0 1-4.08 5.65m1.87 2.28.02-.05q-.01.05-.02.05M626.13 432.5l-.02.03q.02-.02.02-.03M625.91 432.8q.12-.14.2-.27zm0 0"/><path fill="#e1bd8f" d="M623.27 435.79c.51-.5 1.02-.98 1.46-1.54l1.38-1.72a69 69 0 0 0 4.37-6.57c.7-1.19 1.26-2.46 1.87-3.7l1.02-2.04q.53-.98 1.02-1.97.35-.7.7-1.4c.17-.37.27-.74.14-1.12q-.15-.57-.68-.88c-.21-.12-.48-.2-.72-.2-.51 0-1.02.25-1.26.7q-1.04 2.1-2.12 4.17-.94 1.9-1.86 3.82a58 58 0 0 1-4.32 6.75q-.25.38-.54.73.02-.04.05-.07-.06.09-.12.17l.05-.05a23 23 0 0 1-2.62 2.92q-.75.69-1.48 1.39c-.49.48-.93 1.04-1.41 1.53a1.5 1.5 0 0 0 0 2.06c.55.56 1.5.56 2.06 0 .51-.5.97-1.09 1.48-1.6q.76-.66 1.53-1.38M605.99 452.36c1.55-1.16 3.1-2.3 4.54-3.62q1-.95 1.94-1.94c.75-.8 1.4-1.66 2.16-2.46.53-.58.58-1.48 0-2.07a1.5 1.5 0 0 0-1.04-.4c-.37 0-.73.14-1 .4-1.12 1.2-2.11 2.51-3.28 3.65-1.02 1-2.1 1.9-3.22 2.8q-1 .7-1.97 1.46l-1.8 1.43q-.08.06-.14.12-.95.73-1.95 1.34l-1.09.66c-.31.2-.68.34-1.01.5-.7.37-.9 1.34-.54 2q.32.5.87.66c.4.12.76.02 1.12-.15.34-.17.68-.31 1-.51l1.16-.7a27 27 0 0 0 2.16-1.51c.68-.51 1.39-1.1 2.09-1.66M596.3 460.56l-.39-.05q-.39 0-.72.2c-.3.17-.6.5-.66.87l-.34 1.87q-.14.81-.44 1.58-.46.98-1.01 1.92c-.4.68-.17 1.59.53 2 .68.39 1.6.17 2-.54.52-.95 1.03-1.9 1.4-2.91.2-.52.26-1.03.39-1.54l.29-1.6c.07-.41.07-.75-.15-1.12a1.6 1.6 0 0 0-.9-.68M640.53 420.98a1.46 1.46 0 0 0 0-2.92c-.8 0-1.46.65-1.46 1.46 0 .78.66 1.46 1.46 1.46M628.22 437.75q.01-.02.03-.05 0 .05-.03.05m0 0"/><path fill="#e1bd8f" d="m630.48 439.55.07-.1c.58-.72 1.2-1.45 1.77-2.23.4-.51.75-1.05 1.14-1.56q.82-.98 1.49-2.07c.48-.77.92-1.6 1.35-2.4q.72-1.29 1.39-2.6.6-1.33 1.21-2.65c.17-.37.27-.73.15-1.12a1.5 1.5 0 0 0-.66-.88q-.34-.19-.73-.19a1.4 1.4 0 0 0-1.26.7c-.39.8-.73 1.6-1.11 2.4q-.6 1.25-1.29 2.44c-.78 1.41-1.53 2.85-2.5 4.14q-.85 1.1-1.65 2.2-.82 1.02-1.63 2.03v.02l-.58.78c-.22.29-.25.77-.15 1.12s.34.68.68.87c.34.2.76.25 1.12.15.39-.12.63-.34.87-.68q.18-.13.32-.37m0 0"/><path fill="#e1bd8f" d="m628.4 437.56-.13.14q.04-.07.12-.14M623.63 442.86a1.46 1.46 0 0 0 0 2.92c.8 0 1.46-.66 1.46-1.46a1.5 1.5 0 0 0-1.46-1.46M612.8 456.6q.05-.05.08-.05zq.03 0 0 0m0 0"/><path fill="#e1bd8f" d="M618.51 451.3q.42-.45.44-1.03c0-.38-.15-.75-.44-1.02a1.5 1.5 0 0 0-1.06-.41c-.37 0-.74.14-1 .41a40 40 0 0 1-5.15 4.9l-.34.26c-.07.05-.17.1-.21.17q-.66.46-1.32.97-.63.5-1.36.92-.62.4-1.26.71-1.2.7-2.47 1.29-.08.02-.12.05a1.7 1.7 0 0 0-.88.65c-.2.34-.24.76-.14 1.12q.16.57.68.88c.31.17.77.26 1.11.14 1.14-.44 2.19-1.02 3.26-1.6q.7-.38 1.4-.8.84-.51 1.6-1.15l.61-.46c.27-.2.6-.39.87-.63l.03-.03q.04-.04.07-.05l.03-.02a39 39 0 0 0 5.65-5.27M609.05 461.31a1.46 1.46 0 0 0 0 2.92c.8 0 1.45-.66 1.45-1.46 0-.78-.65-1.46-1.45-1.46M606.67 465.96q-.17-.05-.39-.05a1.5 1.5 0 0 0-1.4 1.07q-.26.9-.61 1.77c-.15.32-.32.6-.42.95a1.5 1.5 0 0 0 1.02 1.8c.78.22 1.58-.27 1.8-1.02q.3-.61.56-1.27l.46-1.46c.22-.77-.27-1.6-1.02-1.8M601.74 465.4l-.36-.05c-.63 0-1.24.41-1.41 1.07q-.3 1.2-.73 2.33c-.15.34-.02.8.15 1.12q.3.5.87.66c.37.1.78.04 1.12-.15.36-.2.53-.5.65-.88.3-.75.51-1.55.73-2.33.2-.75-.24-1.58-1.02-1.77M619.14 456.16l-.39-.05q-.38 0-.75.2c-.29.16-.6.5-.65.87q-.28 1.83-.64 3.64a21 21 0 0 1-1.01 3.41q-.2.43-.41.85c-.22.42-.52.76-.76 1.14.02-.04.08-.07.1-.12-.22.3-.34.56-.34.93 0 .38.14.75.44 1.02.26.26.65.43 1.02.43.34 0 .8-.14 1.02-.43q.43-.6.84-1.17.33-.51.56-1.07.58-1.25.97-2.58c.49-1.72.78-3.5 1.05-5.27.04-.42.07-.76-.15-1.12a1.6 1.6 0 0 0-.9-.68M625.65 449.91c-.8 0-1.44.66-1.46 1.46a29 29 0 0 1-.1 1.53c-.12.85-.3 1.7-.43 2.58l.02-.17a44 44 0 0 1-.63 3.5q-.32 1.3-.82 2.5-.34.72-.7 1.44c-.28.5-.47 1.02-.71 1.53-.17.36-.27.73-.15 1.12.1.36.34.68.68.87.66.39 1.63.2 2-.53.19-.4.33-.78.52-1.17q.32-.58.6-1.17.56-1.2 1.01-2.48c.29-.75.43-1.55.6-2.35q.3-1.43.47-2.85.16-.92.34-1.85.2-1.26.22-2.53c.02-.77-.68-1.43-1.46-1.43M649.6 423.97c.8 0 1.46-.66 1.46-1.46s-.65-1.46-1.45-1.46a1.46 1.46 0 0 0 0 2.92M646.43 432.82a24 24 0 0 0 1.96-4.36c.27-.75-.29-1.57-1.02-1.8a1.49 1.49 0 0 0-1.12.14c-.34.2-.53.52-.65.89q-.28.79-.58 1.55a18 18 0 0 1-.95 1.85q-.6.99-1.24 1.95-.65 1.1-1.4 2.11a54 54 0 0 1-5.27 6.44q-.5.56-1 1.07-.54.55-1.11 1.05-1.21 1.12-2.36 2.29a1.5 1.5 0 0 0 0 2.06c.56.56 1.5.58 2.06 0 .9-.95 1.88-1.85 2.84-2.72.86-.78 1.58-1.68 2.38-2.48.85-.88 1.6-1.8 2.36-2.77.48-.61 1-1.22 1.43-1.85q.64-.88 1.29-1.8.64-.91 1.24-1.87zM656.09 427.23a1.6 1.6 0 0 0-1.12-.15c-.32.1-.73.34-.88.65-.29.66-.55 1.37-.87 2a31 31 0 0 1-2.04 3.45q-.54.78-1.11 1.56-.36.45-.7.9-.41.52-.8 1.04l-.18.22c-.44.56-.87 1.07-1.28 1.63-.44.56-.8 1.15-1.22 1.73q-.25.34-.53.63a1.5 1.5 0 0 0 0 2.07c.55.56 1.5.56 2.06 0 .85-.88 1.48-1.95 2.2-2.92l1.03-1.29 1.04-1.39.05-.04-.03.04q.01-.02.03-.04v-.03l.03-.02-.03.02q.77-1 1.5-2.02a32 32 0 0 0 2.31-3.74c.4-.76.7-1.56 1.04-2.33.18-.4.27-.71.15-1.12a1.2 1.2 0 0 0-.65-.85m0 0"/><path fill="#e1bd8f" d="m651.79 437.27-.05.05-.07.07q.05-.08.12-.12M651.67 437.39l.02-.03zM650.72 438.65l-.07.1q-.02.04-.05.07.08-.1.12-.17M649.31 435.73q.05-.03.05-.07ZM641.7 445.44a1.46 1.46 0 0 0 0 2.92 1.46 1.46 0 0 0 0-2.92M634.97 452.4a2 2 0 0 0-.42-.06q-.4-.01-.7.2c-.5.36-1 .75-1.53 1.09-.46.3-1 .49-1.48.7l.07-.02c-.3.15-.55.3-.75.6-.2.35-.24.76-.14 1.13s.34.68.65.87c.3.17.78.3 1.12.15.6-.27 1.26-.51 1.82-.83.58-.34 1.14-.78 1.68-1.2.31-.23.55-.45.65-.87.1-.36.05-.77-.15-1.11a1.3 1.3 0 0 0-.82-.66M633.68 458.59c-.82 0-1.4.66-1.45 1.46q-.03.77-.1 1.56-.1.54-.32 1.07c-.14.34-.02.8.15 1.11a1.5 1.5 0 0 0 1.99.51c.34-.21.53-.5.66-.87.2-.47.28-.93.36-1.41q.1-1 .14-2c.08-.77-.65-1.43-1.43-1.43M635.02 461.87l-.03.15-.02.21q0-.13.05-.36M641.38 452.8c-.8 0-1.46.66-1.46 1.46 0 .97.03 1.97-.07 2.94-.3 1.8-.9 3.55-1.53 5.25v-.02a1.5 1.5 0 0 0 .6 1.8c.35.2.76.24 1.12.14.34-.1.73-.33.87-.65.34-.76.59-1.53.86-2.31q.36-1.1.65-2.26.32-1.26.39-2.56c.05-.77.02-1.55.02-2.3 0-.83-.68-1.49-1.46-1.49M216.57 379.23a1.46 1.46 0 0 0 0-2.92 1.46 1.46 0 0 0 0 2.92M213.79 401.53c.09.36.34.68.65.87.34.2.75.24 1.11.15.32-.1.74-.34.88-.68.32-.76.58-1.53.9-2.29l-.08.2.08-.2.07-.14-.07.14.14-.36c.51-1.17 1.05-2.31 1.39-3.55.39-1.37.55-2.8.65-4.2q.16-2.02.12-4.07c-.02-.7-.04-1.4-.14-2.11l-.24-2.22c-.03-.39-.12-.73-.44-1.02a1.5 1.5 0 0 0-1.02-.44q-.6 0-1.02.44c-.24.25-.46.66-.44 1.02q.13 1.3.3 2.6.09 1.18.12 2.36c.02.83-.05 1.66-.08 2.48q-.03 1.11-.17 2.22-.15 1.07-.43 2.16-.3.98-.68 1.92l-.68 1.58-.03.07q-.41 1.03-.8 2.1l.15-.35-.08.2c-.2.36-.29.7-.16 1.12M212.52 408.14a1.46 1.46 0 0 0 0-2.92 1.46 1.46 0 0 0 0 2.92M207.18 414.68c.34 0 .8-.14 1.02-.44q.64-.76 1.24-1.5c.34-.47.6-1 .87-1.54.37-.7.17-1.58-.53-1.99q-.35-.19-.73-.2a1.4 1.4 0 0 0-1.26.7q-.4.79-.85 1.5-.42.46-.8.97c-.25.31-.44.6-.44 1.02q0 .6.44 1.02.45.47 1.04.46M221.26 403.76c.68.42 1.58.15 1.99-.53.27-.44.44-.95.63-1.44q.8-1.8 1.43-3.67a25.46 25.46 0 0 0 1.4-8.8v-4.4c0-.68.04-1.34.04-2.02 0-.8-.68-1.45-1.46-1.45-.8 0-1.46.65-1.46 1.45q-.03 2.4-.02 4.8c0 1.57.02 3.15-.15 4.73a30 30 0 0 1-.95 4.19c-.38 1.26-.9 2.5-1.38 3.72l-.46 1.11-.14.27c-.4.73-.15 1.65.53 2.04M219.03 406.36q-.17-.03-.4-.04-.39 0-.72.2c-.34.19-.53.5-.66.87l-.31.85q-.44.95-1.02 1.85-.37.42-.78.85-.5.55-.94 1.19l-.1.12c-.27.32-.44.6-.44 1.02q0 .6.44 1.02c.27.27.65.44 1.02.44.36 0 .8-.15 1.02-.44q.37-.44.7-.92c.27-.34.59-.64.87-.98q.6-.63 1.02-1.38c.22-.39.47-.8.66-1.2.27-.53.46-1.11.68-1.67.24-.75-.32-1.58-1.04-1.78M232.64 391.51a1.46 1.46 0 0 0 0-2.92c-.8 0-1.45.66-1.45 1.46.02.8.68 1.46 1.45 1.46M225.53 407.05c-.34.65-.68 1.33-1.12 1.91q-.25.33-.55.66a1.5 1.5 0 0 0 0 2.07c.53.53 1.53.58 2.06 0l.92-1.1q-.04.07-.1.13.33-.41.61-.85.26-.46.5-.93.44-.8.84-1.58a68 68 0 0 0 1.79-3.52c.61-1.27 1.07-2.6 1.53-3.94q.34-.92.6-1.87c.23-.76.35-1.51.5-2.29.07-.39.07-.75-.15-1.12a1.5 1.5 0 0 0-1.24-.7c-.63 0-1.31.41-1.43 1.07a29 29 0 0 1-.41 2.04q-.23.86-.54 1.72c-.36 1.1-.77 2.14-1.21 3.21-.54 1.22-1.17 2.36-1.77 3.56zm-1.1 1.9-.02.01q.08-.08.13-.16-.03.07-.1.14M221.33 417.48c.8 0 1.46-.66 1.46-1.46s-.66-1.46-1.46-1.46a1.46 1.46 0 0 0 0 2.92M231.26 410.43a1.5 1.5 0 0 0 0 2.06c.53.54 1.5.58 2.06 0 .34-.39.75-.73 1.07-1.14q.54-.66.97-1.36.68-1.17 1.21-2.46a27 27 0 0 0 1.58-4.79c.12-.58.17-1.19.24-1.8l.08-.5c.05-.42.07-.76-.15-1.13a1.5 1.5 0 0 0-.87-.65 1.49 1.49 0 0 0-1.12.15c-.3.16-.6.5-.65.87l-.22 1.75a22 22 0 0 1-1.29 4.45 20 20 0 0 1-1.8 3.38q-.51.6-1.11 1.17M226.87 418.93c.34.2.75.25 1.11.15.4-.1.66-.34.88-.65q.36-.54.68-1.15c.39-.7.17-1.58-.51-2-.22-.11-.5-.19-.73-.19-.51 0-1.02.25-1.26.7q-.32.6-.68 1.15c-.47.66-.15 1.6.5 2M243.45 409.21c0-.8-.66-1.46-1.46-1.46s-1.46.66-1.46 1.46.66 1.46 1.46 1.46 1.46-.66 1.46-1.46M240.1 413.41a1.6 1.6 0 0 0-1.12-.14c-.32.1-.73.34-.87.66q-.29.69-.64 1.33-.3.52-.65.97a8 8 0 0 1-1.36 1.47c-.3.21-.44.68-.44 1.01q0 .61.44 1.03c.27.26.63.44 1.02.44.41 0 .7-.18 1.02-.44.68-.54 1.19-1.24 1.72-1.92q.4-.53.75-1.1.35-.63.64-1.33c.16-.4.26-.71.14-1.12a1.3 1.3 0 0 0-.66-.86M242.89 419.05c.09.37.34.69.65.88.34.2.75.25 1.12.15.39-.1.63-.34.87-.68a13 13 0 0 0 1.58-3.53c.24-.75-.27-1.58-1.02-1.8l-.4-.05c-.62 0-1.18.44-1.4 1.07q-.2.7-.46 1.36a8 8 0 0 1-.85 1.46c-.17.32-.2.78-.1 1.14M292.57 459.03c.8 0 1.46-.66 1.46-1.46s-.66-1.46-1.46-1.46-1.46.66-1.46 1.46c.03.8.68 1.46 1.46 1.46M291.33 465.13c.24-.75-.27-1.58-1.02-1.8q-.19-.06-.39-.05c-.63 0-1.19.44-1.4 1.07q-.3.86-.54 1.7c-.17.56-.41 1.1-.6 1.63q-.61 1.53-1.22 3.07-.48 1.02-1.11 1.96l-1.1 1.85q-1.04 1.8-2.3 3.46c-.63.8-1.31 1.53-2.02 2.28-.73.78-1.53 1.49-2.28 2.26q-.95.95-1.94 1.8-.99.87-2.04 1.7c-.73.54-1.48 1-2.23 1.46-.85.53-1.73 1-2.57 1.5a1.5 1.5 0 0 0-.54 2c.39.68 1.31.93 1.99.54q1.66-.94 3.25-1.95a24 24 0 0 0 3.13-2.3c.88-.76 1.8-1.49 2.63-2.32.94-.94 1.89-1.85 2.81-2.82a32 32 0 0 0 4.73-6.37q.46-.8.93-1.58c.34-.56.7-1.1 1-1.7q.48-1.1.91-2.23l.9-2.29c.41-.93.7-1.9 1.02-2.87M264.15 493.07a1.46 1.46 0 1 1-2.91-.01 1.46 1.46 0 0 1 2.9 0M295.2 476.8q0 .02-.06.05-.01.02-.02.05.04-.07.07-.1M295.94 475.8l.1-.12q-.06.08-.1.12M300.24 468.27q-.01.02-.03.05v.02Zm0 0"/><path fill="#e1bd8f" d="m292.91 475.05.22-.3-.44.59q.04-.08.1-.14-.17.22-.34.4a1.5 1.5 0 0 0 0 2.08c.53.53 1.53.58 2.06 0q.34-.4.66-.83.4-.51.77-1.02-.06.08-.12.14.11-.16.22-.26v-.03c.83-1.1 1.65-2.21 2.33-3.4.73-1.27 1.29-2.63 1.84-3.96.56-1.37 1.05-2.75 1.56-4.14.5-1.41 1.09-2.8 1.5-4.23a1.5 1.5 0 0 0-1.02-1.8q-.17-.04-.39-.05c-.63 0-1.23.44-1.4 1.07-.39 1.41-.97 2.75-1.46 4.13q-.7 2-1.48 3.97l.15-.34-.4.9q-.64 1.55-1.42 2.99-.88 1.5-1.92 2.87zM287.18 482.49c-.34 0-.8.15-1.02.44q-.5.66-1.04 1.28l-1 1.02a24 24 0 0 1-3.37 2.8l-1.17.93q-1.1.85-2.23 1.6l-.92.66q-.62.39-1.22.82a1.5 1.5 0 0 0-.65.88c-.1.37-.05.78.15 1.12q.3.49.87.68c.34.1.82.07 1.12-.15q.74-.5 1.48-1l1.43-1.02c1.04-.73 2.04-1.53 3.03-2.3q.63-.46 1.26-.95a42 42 0 0 0 2.19-1.9q.54-.51 1.04-1.07.56-.63 1.1-1.34c.24-.31.4-.6.4-1.02q0-.6-.4-1.02a1.4 1.4 0 0 0-1.05-.46m-5.05 4.5q-.12.1-.24.19l.15-.12H282l.03-.02zl-.06.02.22-.17zm0 0"/><path fill="#e1bd8f" d="m283.98 489.2-.1.07-.2.15q.15-.07.3-.22M282.1 487.01c.03-.02 0-.02 0 0M308.88 460.48a1.46 1.46 0 0 0 0 2.92 1.46 1.46 0 0 0 0-2.92M302.79 479.74q.6-.98 1.23-1.97c.66-1.02 1.2-2.06 1.7-3.18q.48-.98.88-2 .36-.96.68-1.92.26-.72.48-1.48.28-.99.49-2.02c.17-.78-.22-1.58-1.02-1.8l-.37-.05c-.63 0-1.26.42-1.4 1.07a27 27 0 0 1-.8 3.02q-.47 1.39-1 2.75-.5 1.19-1.09 2.36-.6 1.14-1.34 2.25c-.6.93-1.16 1.9-1.77 2.82l-.65 1.05q-.4.6-.83 1.17l-1.33 1.67.22-.28c-.51.65-1.12 1.26-1.68 1.87q-.86 1-1.77 1.97-.82.82-1.63 1.65-.39.43-.82.85-.42.34-.8.68a1.5 1.5 0 0 0 0 2.07c.55.56 1.5.56 2.06 0 .24-.25.53-.44.8-.68q.43-.42.83-.83.82-.85 1.7-1.7.9-.96 1.77-1.97l.87-.95a14 14 0 0 0 .85-1.02c.5-.66 1.07-1.29 1.55-1.97q.56-.76 1.07-1.56c.37-.68.75-1.26 1.12-1.87M317.54 462.72a1.5 1.5 0 0 0-1.99-.5c-.29.16-.6.5-.68.87q-.17 1.16-.46 2.33l-.63 2.1a55 55 0 0 1-1.36 3.93 27 27 0 0 1-2.06 3.77c-.22.3-.36.56-.36.92q0 .62.43 1.02.42.42 1.02.44c.34 0 .8-.14 1.02-.44q.38-.46.68-.97.21-.34.41-.68.41-.65.78-1.33c.56-1.07 1-2.2 1.38-3.31q.59-1.72 1.12-3.43.26-.83.49-1.65.21-.96.36-1.9c.05-.44.05-.8-.15-1.17M308.68 480.42c-.21-.12-.48-.2-.72-.2-.51 0-1.02.25-1.26.71-.37.73-.68 1.48-1.1 2.2q-.54.92-1.16 1.8l-.66.84q.06-.06.1-.12l-.46.58q-.16.2-.27.37c-.41.5-.9.92-1.36 1.4a1.5 1.5 0 0 0 0 2.07c.54.54 1.53.59 2.07 0 .26-.29.58-.58.87-.87q.47-.49.87-1.05.08-.08.15-.17l-.03.03.44-.56c.61-.75 1.21-1.5 1.7-2.36.51-.85.92-1.77 1.36-2.68.17-.36.27-.72.14-1.11a1.6 1.6 0 0 0-.68-.88M324.27 466a1.4 1.4 0 0 1-.43 1.04 1.4 1.4 0 0 1-1.03.42 1.4 1.4 0 0 1-1.03-.42 1.4 1.4 0 0 1-.42-1.04 1.45 1.45 0 0 1 2.8-.55q.1.27.11.55M321.86 471.09l-.38-.05c-.64 0-1.24.44-1.41 1.07q-.21.84-.49 1.62c-.46.98-1.11 1.88-1.7 2.78-.43.65-.12 1.6.51 1.99.7.41 1.56.15 2-.54.45-.7.94-1.38 1.35-2.1a9 9 0 0 0 .76-1.66q.2-.66.38-1.34a1.46 1.46 0 0 0-1.02-1.77M279.97 467.34c.8 0 1.46-.66 1.46-1.46s-.66-1.45-1.46-1.45a1.46 1.46 0 0 0 0 2.91M271.43 481.13q1.55-1.77 3.03-3.58a35 35 0 0 0 1.7-2.3q.4-.6.8-1.22.34-.51.63-1.07.22-.41.39-.83c.17-.36.27-.7.15-1.12a1.5 1.5 0 0 0-.66-.87 1.6 1.6 0 0 0-1.11-.15c-.34.1-.7.34-.88.66-.27.56-.53 1.14-.87 1.65l-.66 1q-.6.92-1.24 1.8l-1.01 1.24q-.63.74-1.24 1.5-.53.63-1.1 1.25c-.38.41-.72.85-1.11 1.29q-1.24 1.38-2.62 2.62-1.43 1.24-2.9 2.45a30 30 0 0 1-4.92 3.05c-.7.34-.9 1.33-.5 1.99q.3.48.87.68c.39.1.75.02 1.11-.15q1.83-.9 3.52-2.04a46 46 0 0 0 3.45-2.68l1.38-1.16q.77-.66 1.46-1.39 1.18-1.3 2.33-2.62M262.1 476.21a1.4 1.4 0 0 1-.42 1.04 1.5 1.5 0 0 1-1.03.43 1.4 1.4 0 0 1-1.03-.43 1.4 1.4 0 0 1-.42-1.04q0-.28.1-.55a1.5 1.5 0 0 1 .8-.8 1.4 1.4 0 0 1 1.11 0 1.5 1.5 0 0 1 .79.8q.1.27.1.55M258.13 479.82c-.22-.15-.49-.2-.7-.2-.52 0-.98.27-1.27.73q-.74 1.2-1.55 2.38c-.66.83-1.34 1.68-2.04 2.46q-1.18 1.26-2.52 2.33-.15.08-.25.2-.15.1-.29.24l-.36.29q-.98.72-2 1.39-1.04.74-2.08 1.43c-.66.44-.95 1.29-.53 2 .39.65 1.33.97 1.99.53q1.22-.85 2.45-1.7 1.27-.85 2.47-1.8.14-.08.25-.2l.02-.02q.07-.06.17-.12l.68-.54q1.16-.96 2.18-2.09.99-1.12 1.9-2.28c.75-.93 1.36-1.97 2.01-2.97.41-.75.12-1.68-.53-2.06M247.38 482.8c.5-.68 1-1.38 1.4-2.1q.72-1.27 1.31-2.56c.18-.37.27-.73.15-1.12q-.17-.57-.65-.88c-.22-.12-.5-.2-.73-.2-.51 0-1.02.25-1.27.71-.46.95-.9 1.9-1.45 2.8a24 24 0 0 1-2.84 3.77q-.74.8-1.53 1.53c-.56.56-.56 1.5 0 2.07s1.48.56 2.06 0q.88-.84 1.72-1.75 1-1.1 1.82-2.27M238.15 488.88c-.41 0-.72.17-1.02.44q-.58.51-1.21 1.02c-.63.46-1.31.8-1.99 1.14-.7.34-.9 1.34-.54 2 .2.31.52.56.88.66q.57.12 1.12-.15c.68-.34 1.36-.68 1.99-1.14q.93-.72 1.8-1.46c.6-.51.53-1.53 0-2.07q-.43-.45-1.03-.44M240 475.02a1.6 1.6 0 0 0-1.12-.14c-.31.1-.73.34-.87.66q-.5 1.16-1.14 2.28a20 20 0 0 1-1.1 1.68q-.89 1.13-1.94 2.11-.58.6-1.16 1.17c-.51.51-1.04.95-1.58 1.41-.61.54-.54 1.53 0 2.07.27.26.66.44 1.02.44.41 0 .73-.18 1.02-.44.4-.37.87-.7 1.26-1.1q.57-.54 1.09-1.11.48-.46.93-.93l.9-1a18 18 0 0 0 3.17-5.12c.17-.4.27-.71.15-1.12a1.4 1.4 0 0 0-.63-.86M226.63 488.08a1.46 1.46 0 0 0 0 2.92 1.46 1.46 0 0 0 0-2.92M232.2 474.8q.35-.75.61-1.53c.17-.5.27-1.02.39-1.53a1.48 1.48 0 0 0-1.38-1.85c-.63 0-1.27.42-1.41 1.07q-.14.65-.32 1.3l-.34.97q-.65 1.44-1.52 2.74-.82 1.26-1.7 2.48-.26.34-.56.64-.34.4-.73.75a1.4 1.4 0 0 0-.44 1.02q0 .6.44 1.02c.27.27.65.44 1.02.44q.6-.02 1.02-.44c.36-.29.65-.65.95-1q.54-.6 1.02-1.31.78-1.1 1.52-2.26c.56-.8 1.02-1.6 1.44-2.5M222.74 481.8c-.37 0-.75.15-1.04.42l-1.2 1.17q-.54.58-1.16 1.1c-.58.53-.53 1.53 0 2.06.27.27.66.44 1.02.44q.6-.02 1.02-.44.6-.5 1.17-1.1l1.18-1.16c.56-.56.56-1.5 0-2.07a1.4 1.4 0 0 0-1-.41M226.4 467.88q0 .29-.1.55a1.45 1.45 0 0 1-2.8-.56 1.4 1.4 0 0 1 .42-1.03 1.4 1.4 0 0 1 1.03-.42 1.4 1.4 0 0 1 1.03.42 1.5 1.5 0 0 1 .43 1.04M220.43 476.53q.6-.72 1.07-1.55.47-.82.9-1.63a1.46 1.46 0 0 0-2.53-1.49c-.43.8-.84 1.63-1.38 2.39q-.54.7-1.16 1.36-.74.73-1.56 1.39c-1.38 1.04-2.88 1.91-4.36 2.82a1.47 1.47 0 0 0 1.48 2.53l2.62-1.64q1.4-.9 2.72-1.96a14 14 0 0 0 2.2-2.22M216.63 469.68l1.2-1.66c.42-.56.8-1.09 1.12-1.7.42-.8.76-1.65 1.14-2.48.18-.36.27-.7.15-1.12-.1-.36-.34-.68-.68-.87q-.35-.19-.73-.2-.19.01-.38.05c-.34.1-.74.34-.88.68-.34.73-.63 1.46-.97 2.19-.34.7-.78 1.31-1.24 1.95l-2.55 3.43a13 13 0 0 1-1.92 1.91c-.8.59-1.67 1.07-2.52 1.56q-.7.4-1.4.83-.66.41-1.27.9c-.31.22-.56.48-.68.87-.1.37-.05.78.15 1.12q.3.5.87.66c.34.1.83.07 1.12-.15q.78-.58 1.6-1.1.88-.53 1.8-1.04a16 16 0 0 0 3.47-2.6c1.02-1 1.77-2.14 2.6-3.23M212.5 458.03a1.46 1.46 0 0 0 0-2.92c-.8 0-1.46.66-1.46 1.46s.68 1.46 1.46 1.46M205.2 466.5l.04-.08q.05-.04.05-.08c-.02.05-.08.1-.1.15m0 0"/><path fill="#e1bd8f" d="M207.33 468.44q.08-.12.17-.22c.43-.54.9-1.07 1.29-1.63q.63-1 1.18-2.04a1.5 1.5 0 0 0-.5-2c-.22-.12-.5-.2-.74-.2-.5 0-1.02.25-1.26.71-.38.73-.77 1.49-1.26 2.17q-.5.6-.97 1.21l-.44.56c-1.28 1.58-3 2.68-4.49 4.04-.58.53-.53 1.5 0 2.07.58.58 1.48.53 2.06 0 .83-.76 1.73-1.4 2.56-2.12q.65-.55 1.23-1.12c.44-.46.8-.95 1.17-1.43M202.04 462.84q.45-.7.82-1.45.51-1.03.95-2.1.58-1.31 1.09-2.62.44-1.17.87-2.36c.3-.8.54-1.65.83-2.48.24-.75-.3-1.58-1.02-1.8l-.39-.05c-.63 0-1.19.44-1.4 1.07a78 78 0 0 1-2.16 5.99 34 34 0 0 1-1.7 3.62q-.52.82-1 1.65c-.3.51-.58 1.02-.95 1.5-.92 1.17-1.8 2.37-2.84 3.4l-1.72 1.69q-.47.46-.95.9l-1.1.92c-.6.51-.52 1.53 0 2.07.28.26.67.44 1.03.44.41 0 .73-.18 1.02-.44.53-.47 1.07-.9 1.58-1.39l1.38-1.36c.41-.41.87-.83 1.26-1.24q.62-.66 1.17-1.39c.78-1 1.62-1.96 2.28-3.06.32-.46.6-1 .95-1.5M187.04 475.05c-.8 0-1.46.66-1.46 1.46s.65 1.45 1.46 1.45 1.45-.65 1.45-1.45a1.5 1.5 0 0 0-1.45-1.46M193.27 460.85c.8-1.39 1.44-2.87 2.07-4.38.36-.85.75-1.72 1.07-2.6.29-.75.5-1.53.75-2.28.53-1.66 1-3.33 1.29-5.06.07-.39.07-.75-.15-1.12q-.31-.49-.87-.68l-.4-.05q-.39 0-.72.2c-.3.17-.61.5-.66.87a33 33 0 0 1-1.14 4.57l-.6 1.92q-.38 1.13-.83 2.22-.3.65-.56 1.31a37 37 0 0 1-2.89 5.5c-.38.58-.84 1.14-1.21 1.75-.41.68-.15 1.6.53 1.99.68.41 1.58.14 2-.54.38-.63.84-1.19 1.23-1.8q.55-.86 1.1-1.82M187.13 468.41c.12-.34.03-.8-.14-1.12q-.31-.48-.88-.68-.18-.04-.38-.05-.41.01-.73.2-.5.31-.66.87-.21.59-.43 1.12a17 17 0 0 1-1.82 3.09q-.48.57-.95 1.14-.5.62-1.12 1.14-.88.61-1.77 1.22-.6.4-1.12.87-.5.5-.97 1.03a1.5 1.5 0 0 0 0 2.06c.54.54 1.53.59 2.07 0q.56-.65 1.23-1.24c.66-.48 1.36-.92 2.02-1.4a8 8 0 0 0 1.45-1.3c.4-.43.73-.87 1.12-1.33q.97-1.18 1.75-2.5c.53-.93.92-2.05 1.33-3.12M188.83 452.14a1.4 1.4 0 0 1-.42 1.04q-.21.2-.48.31a1.44 1.44 0 0 1-1.9-.79 1.4 1.4 0 0 1 0-1.11 1.45 1.45 0 0 1 2.8.55M177.6 469.48q.49-.54.94-1.16l1.6-2.1a22 22 0 0 0 2.53-4.15q.56-1.2 1.14-2.39c.17-.36.26-.73.14-1.11q-.17-.57-.65-.88c-.22-.12-.49-.2-.73-.2a1.4 1.4 0 0 0-1.26.7c-.68 1.45-1.34 2.9-2.14 4.29-.82 1.38-1.82 2.65-2.79 3.94l-.29.36.22-.29c-.58.76-1.24 1.44-1.87 2.14q-.46.51-.97 1.02c-.42.39-.8.8-1.24 1.2-.3.21-.5.45-.6.82s-.06.78.14 1.12c.36.63 1.34.97 1.99.5.58-.4 1.1-.94 1.63-1.45q.57-.55 1.11-1.14.55-.62 1.1-1.22m0 0"/><path fill="#e1bd8f" d="m178.57 468.29-.03.02q-.01.03-.02.05 0-.03.05-.07M167.2 475.34a1.46 1.46 0 0 0 0 2.92c.8 0 1.46-.66 1.46-1.46a1.5 1.5 0 0 0-1.45-1.46M173.03 459.2l.83-1.78c.17-.36.26-.7.14-1.12-.1-.36-.34-.68-.68-.87a1.6 1.6 0 0 0-1.11-.15c-.34.1-.73.35-.88.66q-.55 1.19-1.06 2.38a18 18 0 0 1-1.92 3.26 33 33 0 0 1-2.87 3.23q-.74.76-1.45 1.53c-.27.3-.51.59-.8.86q-.34.31-.7.58-.18.12-.35.24a1.46 1.46 0 0 0-.5 2c.38.65 1.3.94 1.98.5.61-.38 1.2-.87 1.73-1.36.46-.4.87-.92 1.28-1.36.78-.85 1.6-1.62 2.36-2.5.84-1 1.7-2 2.42-3.09q.41-.61.78-1.24c.3-.53.54-1.17.8-1.77M157.35 472.38a1.46 1.46 0 0 0 0 2.91c.8 0 1.46-.65 1.46-1.46 0-.78-.66-1.45-1.46-1.45M163.45 456.72a1.46 1.46 0 0 0 0-2.92c-.8 0-1.46.66-1.46 1.46.02.8.68 1.46 1.46 1.46M160.1 457.45c-.22-.13-.5-.2-.73-.2a1.4 1.4 0 0 0-1.26.7l-1.12 2.05c-.4.66-.88 1.27-1.34 1.87a18 18 0 0 1-3.06 3.26c-.46.34-.92.66-1.33 1.05a1.5 1.5 0 0 0 0 2.06c.56.56 1.5.56 2.06 0l.41-.37a18 18 0 0 0 1.97-1.62q.94-.96 1.75-2.02c.66-.83 1.34-1.65 1.9-2.55q.67-1.1 1.26-2.24c.38-.7.21-1.58-.52-2M148.61 469.68l-.4-.05q-.42-.01-.71.19c-.63.49-1.27 1-2 1.39a1.5 1.5 0 0 0-1.01 1.8c.2.75 1.02 1.24 1.8 1.02 1.01-.32 1.84-1.05 2.69-1.68.31-.24.56-.46.65-.87.1-.37.05-.78-.14-1.12q-.31-.53-.88-.68M153.93 454.55l.3-.43c.43-.66.11-1.6-.54-2-.22-.12-.49-.2-.73-.2q-.2 0-.39.06-.57.17-.87.65c-.34.49-.63 1.02-.95 1.53q-.5.85-.97 1.73a29 29 0 0 1-2.07 3.06q-.54.7-1.09 1.37-.61.73-1.3 1.38-.53.54-1.07 1.05-.53.46-1.1.9-.81.59-1.62 1.19-.54.39-1.12.75-.72.46-1.48.87c-.7.37-.9 1.34-.54 2 .42.7 1.3.88 2 .54.53-.27 1.04-.61 1.55-.93q.73-.44 1.4-1c1.1-.82 2.24-1.6 3.21-2.55.95-.9 1.87-1.84 2.67-2.87q.78-.98 1.53-2.02c.39-.53.8-1.06 1.14-1.65.7-1.12 1.34-2.28 2.04-3.43M144.88 450.42a1.46 1.46 0 0 0 0-2.92 1.46 1.46 0 0 0 0 2.92M140.21 457.76q.57-.69 1.05-1.4.44-.68.75-1.42c.17-.36.27-.73.15-1.12a1.5 1.5 0 0 0-.66-.87q-.34-.19-.73-.2c-.5 0-1.02.25-1.26.71-.36.7-.72 1.38-1.19 2.02l-1.38 1.65q-.37.45-.78.83-.4.38-.85.75c-.56.42-1.16.73-1.77 1.1q-.94.59-1.84 1.23a1.5 1.5 0 0 0-.66.88c-.1.37-.05.78.15 1.12.36.66 1.33.97 1.99.53a29 29 0 0 1 2.3-1.5q1.49-.85 2.75-2.02.53-.53 1-1.1.5-.55.98-1.19M137.47 444.59c.8 0 1.46-.66 1.46-1.46s-.66-1.46-1.46-1.46-1.45.65-1.45 1.45c0 .81.68 1.47 1.45 1.47M131.91 453.75c.27-.34.56-.63.83-.95q.58-.62 1.1-1.28c.53-.71.91-1.54 1.33-2.34.36-.7.2-1.58-.54-2q-.35-.18-.72-.19a1.4 1.4 0 0 0-1.27.7c-.41.79-.8 1.56-1.3 2.3q-.57.63-1.13 1.23-.53.67-1.06 1.3c-.36.4-.78.77-1.17 1.13-.39.37-.75.73-1.16 1.07q-.84.63-1.63 1.3a1.4 1.4 0 0 0 0 2.03c.27.27.66.44 1.02.44.42 0 .73-.17 1.02-.44l1.04-.85q.52-.36 1-.8l.92-.87.9-.88c.34-.24.58-.58.82-.9M125 451.18l.36-.47-.22.3.05-.08q.02-.03.05-.07l-.03.02c.6-.75 1.1-1.56 1.66-2.33l1.6-2.26a25 25 0 0 0 2.57-4.7c.17-.36.27-.7.15-1.11a1.45 1.45 0 0 0-1.4-1.07q-.2 0-.4.04c-.34.1-.73.35-.87.66q-.54 1.2-1.15 2.38-.6 1.1-1.33 2.14-.78 1.14-1.6 2.24c-.53.7-1 1.46-1.5 2.17l-.1.12q-.62.71-1.22 1.43l.22-.3c-.39.5-.82.9-1.3 1.32q.03-.02.04-.05c-.24.2-.44.42-.51.76-.1.36-.05.77.14 1.11.2.32.52.57.88.66.34.1.82.07 1.12-.14q.57-.45 1.1-.93.38-.37.7-.82l1.08-1.3c0 .18-.04.23-.1.28M118.98 438.8q-.6 0-1.02.43c-.3.3-.39.64-.44 1.03l-.05.63q-.15.75-.43 1.48c-.56 1.31-1.29 2.56-1.87 3.84-.17.37-.27.7-.15 1.12q.16.57.68.88c.34.2.75.24 1.12.14.34-.1.73-.34.87-.68q.75-1.55 1.53-3.06.45-.92.8-1.87c.3-.8.39-1.66.46-2.5 0-.79-.77-1.44-1.5-1.44M115.39 450.57c-.22-.12-.49-.2-.73-.2q-.2 0-.39.05c-.34.1-.73.34-.88.68-.46 1.04-.92 2.14-1.57 3.09q-.25.3-.53.58a1.5 1.5 0 0 0 0 2.07c.55.56 1.5.56 2.06 0 .58-.61 1.1-1.27 1.48-2 .38-.72.72-1.5 1.06-2.25.18-.37.27-.71.15-1.13q-.12-.58-.65-.9M111.63 441.45c.07-.8-.7-1.46-1.46-1.46-.39 0-.76.15-1.02.44-.3.29-.39.63-.44 1.02q-.07.95-.17 1.87a33 33 0 0 1-1.6 5.79l-.68 1.94c-.3.66-.58 1.29-.95 1.92-.5.93-1.14 1.8-1.55 2.75-.17.39-.27.7-.15 1.12.1.36.34.68.66.87.34.2.75.25 1.12.15.31-.1.72-.34.87-.66.27-.65.65-1.26 1.02-1.87.31-.53.65-1.1.92-1.65q.44-.92.83-1.82c.24-.61.43-1.25.65-1.85a31 31 0 0 0 1.94-8.56M100.87 438.5a1.46 1.46 0 0 0 0 2.93 1.46 1.46 0 0 0 0-2.92M99.4 445.1l-.4-.05q-.4 0-.73.2c-.29.16-.6.5-.68.87-.12.68-.16 1.36-.34 2.01a9 9 0 0 1-.53 1.58c-.39.9-.85 1.78-1.26 2.65-.41.88-.83 1.73-1.4 2.51-.37.44-.79.85-1.17 1.26a1.5 1.5 0 0 0 0 2.07c.56.56 1.5.59 2.06 0 .75-.8 1.5-1.58 2.06-2.5.51-.83.88-1.73 1.31-2.58.51-1.02 1-2.04 1.39-3.09q.27-.66.38-1.36.14-.88.27-1.75c.07-.39.07-.76-.15-1.12a1.2 1.2 0 0 0-.82-.7M92.81 446.75q.36-1.25.61-2.53c.2-1 .27-2 .37-3.01.07-.78-.7-1.46-1.46-1.46-.39 0-.76.14-1.02.43-.29.3-.39.64-.44 1.03-.05.5-.07 1.04-.14 1.55a24 24 0 0 1-1.63 5.57q-.35.84-.68 1.68.02-.04.03-.08l-.18.42.15-.34q-.35.88-.8 1.7-.41.65-.85 1.26c-.44.66-.12 1.6.53 2a1.49 1.49 0 0 0 1.99-.5c.3-.45.61-.86.88-1.33.38-.68.68-1.46 1-2.19l-.15.35q.5-1.2 1-2.41.44-1 .8-2.14M85.46 456.23c-.8 0-1.46.66-1.46 1.46s.66 1.46 1.46 1.46a1.46 1.46 0 0 0 0-2.92M81.94 442.79q-.6 0-1.02.43c-.3.3-.39.64-.44 1.03q-.02.32-.05.65c-.12.76-.34 1.51-.53 2.26-.22.75-.41 1.54-.68 2.26q-.48 1.06-1.1 2.04c-.45.76-.89 1.54-1.4 2.27q-.09.1-.17.2c-.26.28-.44.6-.44 1.01q0 .62.44 1.02c.54.54 1.53.61 2.06 0 .76-.9 1.34-1.92 1.94-2.91.56-.93 1.1-1.87 1.49-2.87.33-.9.58-1.85.82-2.75q.2-.67.34-1.34.18-.9.25-1.82c.02-.83-.76-1.48-1.5-1.48M73.93 441.1a1.46 1.46 0 0 0 0 2.93c.8 0 1.46-.66 1.46-1.46s-.68-1.46-1.46-1.46M72.67 446.75a2 2 0 0 0-.39-.05c-.63 0-1.19.44-1.4 1.07q-.25.73-.52 1.46c-.43.92-1.07 1.75-1.67 2.55q-.41.5-.78 1.05c-.44.65-.14 1.6.54 1.99.7.41 1.55.14 1.98-.53q.19-.3.37-.54l-.03.02c.61-.8 1.24-1.6 1.75-2.45.53-.87.8-1.85 1.14-2.8.27-.73-.27-1.57-1-1.77M66.36 444.13q-.2-.08-.4-.06c-.62 0-1.18.44-1.4 1.07-.34 1.02-.63 2.05-1.02 3.02q-.33.76-.77 1.46-.31.43-.61.83l-.51.7.14-.17c-.24.32-.4.58-.4 1.02q0 .6.43 1.02c.27.27.65.44 1.02.44.34 0 .8-.15 1.02-.44.41-.5.77-1.07 1.16-1.58a9 9 0 0 0 .93-1.58c.6-1.29.96-2.63 1.4-3.96.27-.73-.24-1.56-1-1.77M58.03 448.13a1.4 1.4 0 0 1-.42 1.04 1.4 1.4 0 0 1-1.04.42q-.28 0-.55-.1a1.4 1.4 0 0 1-.79-.8q-.1-.26-.1-.56a1.4 1.4 0 0 1 .42-1.03 1.4 1.4 0 0 1 1.02-.42q.3 0 .56.1a1.4 1.4 0 0 1 .8.8q.1.26.1.55M50.48 448.77a1.6 1.6 0 0 0-1.11-.15q-.57.16-.88.68-.45.61-.87 1.27c-.41.68-.15 1.6.5 1.99.71.41 1.59.15 2-.5q.42-.67.87-1.27c.46-.68.15-1.66-.5-2.02M42.89 449.5a1.46 1.46 0 0 0 0 2.91c.8 0 1.45-.65 1.45-1.46 0-.77-.65-1.45-1.45-1.45M376.57 473.83q0 .3-.1.56a1.4 1.4 0 0 1-.8.79 1.46 1.46 0 1 1-.55-2.8 1.45 1.45 0 0 1 1.45 1.45M371.33 483.34a17 17 0 0 0 1.75-2.16q.79-1.28 1.14-2.7a1.48 1.48 0 0 0-1.38-1.85c-.64 0-1.24.44-1.41 1.07q-.15.57-.37 1.14a9 9 0 0 1-1.8 2.46c-.53.58-.58 1.48 0 2.06.54.54 1.51.56 2.07-.02M377.71 482.51c.34.2.75.25 1.12.15.39-.1.63-.34.85-.63q.32-.4.6-.8.27-.42.5-.86c.36-.68.62-1.4.9-2.14.18-.58.38-1.16.5-1.77.14-.66.22-1.34.34-2 .07-.4.07-.75-.14-1.11a1.5 1.5 0 0 0-1.27-.7q-.4 0-.73.19c-.29.17-.6.5-.65.87-.15.88-.25 1.75-.49 2.6a13 13 0 0 1-1.6 3.65q-.23.3-.46.58c-.22.3-.24.78-.14 1.12.12.34.36.66.67.85M385.7 480.28c.34.2.75.24 1.12.14q.55-.17.87-.65c.83-1.17 1.1-2.58 1.31-3.97.07-.4.07-.75-.14-1.12a1.5 1.5 0 0 0-.88-.65l-.39-.05q-.4 0-.73.2c-.29.16-.6.5-.65.87q-.1.68-.25 1.36a6 6 0 0 1-.77 1.9c-.49.63-.15 1.58.5 1.97M393.52 478.67a1.46 1.46 0 0 0 0-2.92c-.8 0-1.46.66-1.46 1.46s.65 1.46 1.46 1.46M392.57 482.78a1.46 1.46 0 0 0 0-2.92 1.46 1.46 0 0 0 0 2.92M399.14 482.76c.34.19.76.24 1.12.14.34-.1.7-.34.88-.65q.38-.78.58-1.66c.12-.65.14-1.3.14-1.96 0-.81-.65-1.47-1.45-1.47s-1.46.66-1.46 1.46q0 .55-.02 1.1-.12.6-.34 1.16-.24.47-.1 1 .17.57.65.88M406.57 482.68a1.46 1.46 0 0 0 0-2.91 1.46 1.46 0 0 0 0 2.92M273.93 390.95a1.46 1.46 0 1 0 1.46-1.46c-.78 0-1.46.66-1.46 1.46M253.4 389.86a1.46 1.46 0 0 0 0-2.92 1.46 1.46 0 0 0 0 2.92M303.42 331.87a1.45 1.45 0 1 1-2.91 0 1.4 1.4 0 0 1 .9-1.35 1.4 1.4 0 0 1 1.11 0 1.4 1.4 0 0 1 .79.8q.1.26.1.55M263.93 353.92a1.46 1.46 0 0 0 0-2.92c-.8 0-1.46.66-1.46 1.46 0 .78.66 1.46 1.46 1.46M231.04 351.27q.32-.11.6-.27.28-.08.57-.12c.53-.04 1.06-.1 1.6-.07q.44.08.85.27.7.33 1.3.78c.4.31.74.65 1.1 1.01q.52.49.97 1 .16.23.27.44l.12.3c.15.26.31.4.56.58.39.26 1.09.29 1.45 0 .34-.25.66-.56.7-1l.08-.66c.02-.22.08-.4.1-.63.05-.2.05-.41.1-.6.19-1.1.58-2.17.97-3.22q.19-.44.4-.85.24-.36.5-.73l.29-.34.34-.43c.19-.27.24-.56.26-.88.05-.56-.3-1.14-.78-1.4-.26-.16-.5-.2-.77-.25q-.65-.13-1.26-.37a6 6 0 0 1-.8-.48q-.69-.6-1.29-1.22-.49-.47-1.04-.88c-.32-.21-.66-.34-.98-.53q-.26-.4-.46-.8a1.3 1.3 0 0 0-.56-.56 2 2 0 0 0-.36-.59 1.5 1.5 0 0 0-1.02-.43q-.6 0-1.02.43c-.3.3-.38.64-.44 1.03q-.04.52-.12 1.04-.13 1-.36 2-.26 1.01-.63 1.99a16 16 0 0 1-1.8 2.99q-.26.32-.53.6-.13.15-.27.32c-.36.44-.6.93-.43 1.51.21.75 1.04 1.29 1.79 1.02m11.24-4.18h-.07q.03-.03.07 0m-7.4-.95q.59-1.4.94-2.89.23.14.49.24l.44.24q.5.47.99.95c.44.42.85.8 1.33 1.14q.66.48 1.39.76a19.57 19.57 0 0 0-1.46 3.57q-.04.19-.1.37-.88-.9-1.96-1.58c-.9-.56-1.9-.95-2.94-1.05q.46-.8.88-1.75M204.88 350.08c0 .8.65 1.46 1.45 1.46a1.46 1.46 0 0 0 0-2.92 1.5 1.5 0 0 0-1.46 1.46M148.4 354.36a1.46 1.46 0 0 0 0-2.92c-.8 0-1.46.66-1.46 1.46.02.8.68 1.46 1.45 1.46M106.36 391.95a1.46 1.46 0 0 0 0-2.92 1.46 1.46 0 0 0 0 2.92M274.78 307.85a1.46 1.46 0 0 0 0-2.92c-.8 0-1.46.66-1.46 1.46s.68 1.46 1.46 1.46M339.17 278.29a1.46 1.46 0 0 0 0-2.92 1.46 1.46 0 0 0 0 2.92M368.83 282.27a1.46 1.46 0 0 0 0-2.91 1.46 1.46 0 0 0 0 2.91m0 0"/><g clip-path="url(#b)"><path fill="#e1bd8f" d="M418.8 250.98a1.4 1.4 0 0 1-.9 1.35 1.44 1.44 0 0 1-1.9-.8 1.4 1.4 0 0 1 0-1.1 1.4 1.4 0 0 1 .8-.8q.26-.1.55-.1a1.4 1.4 0 0 1 1.35.9q.1.26.1.55m0 0"/></g><path fill="#e1bd8f" d="M451.84 286.11a1.46 1.46 0 0 0 0-2.91c-.8 0-1.46.65-1.46 1.46 0 .77.68 1.45 1.46 1.45M445.36 308.77a1.46 1.46 0 0 0 0-2.92 1.46 1.46 0 0 0 0 2.92M475.48 321.51c.17.1.39.17.56.25q.17.07.39.14c.63.22 1.3.37 1.96.54q.84.2 1.68.41.8.22 1.65.39c.65.15 1.33.27 1.99.49q.06.21.1.43c.1.93.14 1.88.24 2.82q.1 1.47.15 2.92.01.94.14 1.9c.1.6.6 1.14 1.19 1.29q.74.19 1.43-.22c.49-.27.83-.73 1.19-1.15l1.1-1.4q.62-.84 1.25-1.66.47-.67.98-1.34l.8-.94q.4-.49.77-1 .02-.02.03-.05.53.11 1.06.27c.54.12 1.1.3 1.63.44l1.8.53c.65.2 1.36.24 2.04.34h-.03l.9.12c.58.1 1.14.2 1.72.2q.28-.01.54-.05c.17-.03.4-.03.58-.1.41-.17.68-.34.92-.73.37-.53.2-1.21-.07-1.73l-.27-.5q-.35-.66-.77-1.27a38 38 0 0 0-1.97-2.8q-.5-.57-1.02-1.09l-.73-.85c.34-.4.73-.75 1.1-1.15q.87-1 1.67-2.03.7-.9 1.16-1.95a1.57 1.57 0 0 0-.34-1.7c-.26-.3-.68-.4-1.06-.44-.24-.02-.51.05-.78.12-.54.05-1.07.02-1.6.05q-1.2.09-2.4.24l-1.9.3-1.65.29q-.18.03-.36.02c-.17-.27-.32-.58-.46-.85a5 5 0 0 0-.42-.63q-.32-.44-.65-.83-.47-.62-.9-1.29-.53-.8-1.02-1.67-.22-.4-.48-.76-.23-.31-.5-.58c-.21-.22-.62-.51-.94-.59l-.5-.04c-.3 0-.56.04-.83.22q-.31.18-.53.43-.33.38-.59.78-.53.92-.92 1.9c-.3.68-.49 1.38-.73 2.06q-.34.91-.68 1.85c-.22.6-.31 1.26-.41 1.92q-.4-.01-.75.2c-.24.14-.5.34-.76.48q-.44.25-.87.54-.44.25-.85.53-.46.34-.92.68-.91.69-1.84 1.36c-.68.47-1.44.95-1.88 1.68-.21.37-.28.88-.16 1.27q.26.63.82 1m8.2 2.12-.02-.02zm-3.06-5.33c.47-.36.98-.65 1.49-.97q.32-.22.65-.39.35-.22.68-.46.44-.28.6-.73c.28 0 .57-.05.78-.2.3-.16.61-.5.66-.87q.09-.8.27-1.56c.12-.48.31-.92.46-1.38q.3-.76.56-1.53.21-.69.5-1.39.08-.2.2-.41.01.02.03.05.33.63.75 1.21.75 1.13 1.63 2.22.2.24.36.53.2.37.4.78.29.52.66.92c.52.56 1.34.68 2.04.66.44 0 .88-.1 1.32-.17l1.2-.22q1.03-.18 2.05-.32.69-.08 1.38-.12-.6.77-1.29 1.46l-.75.8c-.36.42-.58.8-.77 1.32-.22.6-.1 1.31.26 1.85q.42.57.88 1.11c.5.63 1.11 1.17 1.62 1.8q.68.91 1.29 1.87l-.22-.02q.06 0 .12.02l-1.21-.17a6 6 0 0 1-.97-.22q-.6-.2-1.21-.36l-2.12-.59q-.4-.12-.8-.21-.54-.13-1.1-.15-.38-.03-.77.05c-.36.05-.75.34-1.02.6s-.46.54-.65.8c-.51.64-1.07 1.27-1.58 1.9-.46.59-.85 1.2-1.29 1.78l-.65.85-.08-1.1q-.08-.99-.16-1.98c-.05-.76-.1-1.51-.25-2.24a3 3 0 0 0-.82-1.53 4 4 0 0 0-1.65-.78q-.97-.26-1.92-.44l-3.23-.78c.53-.46 1.12-.87 1.68-1.29M498.6 278.84a1.46 1.46 0 0 0 0-2.91 1.46 1.46 0 0 0 0 2.91M533.66 293.29a1.46 1.46 0 0 0 0-2.92c-.8 0-1.46.65-1.46 1.46 0 .78.66 1.46 1.46 1.46M502.71 346.39a1.46 1.46 0 1 0 1.46-1.46c-.78 0-1.46.65-1.46 1.46M555.94 333.06a1.46 1.46 0 0 0 0-2.92c-.8 0-1.46.66-1.46 1.46.03.8.68 1.46 1.46 1.46M590.24 305.27a1.46 1.46 0 0 0 0-2.91 1.46 1.46 0 0 0 0 2.91M588.41 362.55a1.46 1.46 0 0 0 0-2.91 1.46 1.46 0 0 0 0 2.91M633.83 356.09a1.46 1.46 0 0 0 0-2.92 1.46 1.46 0 0 0 0 2.92M631.52 381.98q.18.06.37.1.28.16.56.34.47.38.87.85.21.33.39.68.38 1.1.56 2.26.1.62.2 1.24.05.47.16.95v.05-.03.03q-.01.2.05.4c.14.64.77 1.08 1.4 1.08a1.5 1.5 0 0 0 1.39-1q.17-.3.36-.56a10 10 0 0 1 1.04-1.19q.66-.6 1.36-1.14.75-.53 1.56-.95l.58-.32q.27-.12.51-.26c.27-.2.46-.34.63-.63.2-.34.3-.86.12-1.24a3 3 0 0 0-.6-.93q-.52-.5-.98-1.02c-.36-.51-.62-1.07-.89-1.63q-.33-.92-.46-1.92-.05-.46-.08-.92-.03-.59-.14-1.12-.06-.3-.25-.51a1.46 1.46 0 0 0-1.4-1.12c-.51 0-1 .27-1.26.73q-.37.6-.76 1.2-.82 1.04-1.86 1.91-.88.6-1.85 1.02c-.56.22-1.17.37-1.73.58-.38.15-.77.37-.96.76l-.15.34q-.1.39 0 .78c.05.26.22.48.39.7s.58.4.87.49m4.8-2.16q.88-.65 1.63-1.41.07.38.17.77c.1.44.3.88.49 1.32l.48 1.02c.22.41.52.8.8 1.19l.08.07-.08.05a14 14 0 0 0-2.4 1.75l-.5.46q-.05-.3-.13-.58a8 8 0 0 0-.29-1 7 7 0 0 0-.73-1.58q-.44-.63-1-1.17.79-.38 1.49-.9m-2.13.29-.02-.03-.12-.1q.07.09.14.13M677.61 378.77a1.46 1.46 0 0 0 0-2.92c-.8 0-1.45.66-1.45 1.46.02.8.68 1.46 1.45 1.46M682.69 408.14a1.46 1.46 0 0 0 0-2.92c-.8 0-1.46.66-1.46 1.46s.68 1.46 1.46 1.46M711.55 437.32a1.46 1.46 0 0 0 0-2.92c-.8 0-1.46.65-1.46 1.46 0 .77.68 1.46 1.46 1.46M205.43 316.38a1.4 1.4 0 0 1-.9 1.35 1.4 1.4 0 0 1-1.1 0 1.4 1.4 0 0 1-.8-.79 1.4 1.4 0 0 1 .32-1.59 1.4 1.4 0 0 1 1.03-.42 1.4 1.4 0 0 1 1.34.9q.12.26.11.55M66.45 415.7a1.4 1.4 0 0 1-.42 1.03 1.4 1.4 0 0 1-1.03.43q-.3 0-.56-.1a1.4 1.4 0 0 1-.79-.8q-.1-.27-.1-.56a1.4 1.4 0 0 1 .42-1.03 1.4 1.4 0 0 1 1.03-.43 1.5 1.5 0 0 1 1.03.43 1.5 1.5 0 0 1 .42 1.03m0 0"/></svg>